<?xml version="1.0" standalone="no"?>
<!DOCTYPE svg PUBLIC "-//W3C//DTD SVG 1.1//EN" "http://www.w3.org/Graphics/SVG/1.1/DTD/svg11.dtd" >
<svg xmlns="http://www.w3.org/2000/svg" xmlns:xlink="http://www.w3.org/1999/xlink" version="1.1">
<metadata>
Created by FontForge 20170910 at Tue Aug  5 20:36:48 2014
 By Jimmy Wärting
Copyright (C) 2001, 2008 Hoefler &#38; Co. http://www.typography.com
</metadata>
<defs>
<font id="Font" horiz-adv-x="530" >
  <font-face 
    font-family="Font"
    font-weight="400"
    font-stretch="condensed"
    units-per-em="1000"
    panose-1="0 0 0 0 0 0 0 0 0 0"
    ascent="800"
    descent="-200"
    x-height="557"
    cap-height="728"
    bbox="-32 -200 644 895"
    underline-thickness="50"
    underline-position="-50"
    unicode-range="U+0020-02C7"
  />
<missing-glyph horiz-adv-x="500" 
d="M0 -200v1000h500v-1000h-500zM71 750l179 -390l179 390h-358zM50 -76l172 376l-172 376v-752zM450 676l-172 -376l172 -376v752zM250 240l-179 -390h358z" />
    <glyph glyph-name=".notdef" horiz-adv-x="500" 
d="M0 -200v1000h500v-1000h-500zM71 750l179 -390l179 390h-358zM50 -76l172 376l-172 376v-752zM450 676l-172 -376l172 -376v752zM250 240l-179 -390h358z" />
    <glyph glyph-name="space" unicode=" " horiz-adv-x="176" 
 />
    <glyph glyph-name="exclam" unicode="!" horiz-adv-x="239" 
d="M89 225l-42 479v24h145v-24l-42 -479h-61zM50 0v141h139v-141h-139z" />
    <glyph glyph-name="dollar" unicode="$" horiz-adv-x="373" 
d="M319 710v-125c-40 23 -64 33 -98 33h-1c-35 0 -68 -24 -67 -69v-1c0 -31 12 -54 72 -121l1 -1c100 -112 123 -162 123 -241v-1c0 -90 -51 -159 -123 -181v-114h-80v107c-40 3 -74 14 -105 29v125c45 -26 75 -40 114 -40h1c41 0 72 26 71 76v1c0 25 -9 61 -71 126l-1 1
c-89 95 -124 146 -124 231v1c0 88 46 153 115 177v82h80v-73c39 -2 68 -11 93 -22z" />
    <glyph glyph-name="zero" unicode="0" horiz-adv-x="418" 
d="M209 -10c-116 0 -178 103 -178 355v38c0 252 62 355 178 355c114 0 178 -103 178 -355v-38c0 -252 -64 -355 -178 -355zM209 102c31 0 57 37 57 244v36c0 207 -26 244 -57 244c-32 0 -58 -37 -58 -244v-36c0 -207 26 -244 58 -244z" />
    <glyph glyph-name="one" unicode="1" horiz-adv-x="270" 
d="M96 0v599l-76 -26v124l111 36h87v-733h-122z" />
    <glyph glyph-name="two" unicode="2" horiz-adv-x="355" 
d="M27 0v103l135 283c41 87 53 125 53 162c0 38 -23 72 -72 72c-39 0 -72 -16 -101 -35v118c34 18 74 35 129 35c98 0 163 -62 163 -170v-5c0 -58 -14 -113 -57 -199l-119 -244h173v-120h-304z" />
    <glyph glyph-name="three" unicode="3" horiz-adv-x="350" 
d="M127 -10c-44 0 -77 7 -107 19v116c30 -12 53 -19 92 -19c52 0 93 39 93 108v8c0 77 -51 110 -129 115v80l120 192h-167v119h292v-108l-125 -197c74 -24 129 -76 129 -192v-11c0 -143 -84 -230 -198 -230z" />
    <glyph glyph-name="five" unicode="5" horiz-adv-x="356" 
d="M132 -10c-37 0 -73 9 -96 19v119c24 -12 54 -21 83 -21c60 0 95 50 95 130v8c0 79 -30 107 -72 107c-20 0 -34 -3 -51 -11l-60 40l19 347h257v-116h-166l-10 -155c14 4 29 6 50 6c77 0 153 -56 153 -217v-10c0 -156 -83 -246 -202 -246z" />
    <glyph glyph-name="six" unicode="6" horiz-adv-x="392" 
d="M200 -10c-39 0 -71 11 -97 38c-48 47 -72 143 -72 300v28c0 299 86 382 203 382c38 0 63 -7 87 -16v-116c-20 12 -48 22 -74 22c-60 0 -99 -47 -100 -191c26 23 49 33 84 33c67 0 136 -52 136 -213v-20c0 -150 -70 -247 -167 -247zM201 99c33 0 52 42 52 133v21
c0 86 -25 116 -57 116c-21 0 -35 -9 -48 -21v-88c0 -118 22 -161 53 -161z" />
    <glyph glyph-name="eight" unicode="8" horiz-adv-x="394" 
d="M197 -10c-99 0 -171 79 -171 211v7c0 95 44 154 85 181c-47 30 -74 84 -74 156v6c0 117 73 187 160 187s160 -70 160 -187v-6c0 -72 -27 -126 -74 -156c41 -27 85 -86 85 -181v-7c0 -132 -72 -211 -171 -211zM197 426c30 0 48 36 48 107v7c0 76 -21 102 -48 102
s-48 -26 -48 -102v-7c0 -71 19 -107 48 -107zM197 87c31 0 54 31 54 120v7c0 85 -23 118 -54 118s-54 -33 -54 -118v-7c0 -89 23 -120 54 -120z" />
    <glyph glyph-name="nine" unicode="9" horiz-adv-x="392" 
d="M145 100c58 0 97 46 100 182c-27 -22 -51 -32 -84 -32c-69 0 -136 52 -136 219v16c0 158 70 253 167 253c39 0 70 -11 97 -38c48 -47 72 -143 72 -300v-28c0 -299 -86 -382 -203 -382c-39 0 -69 8 -97 19v116c26 -14 56 -25 84 -25zM195 351c21 0 36 9 49 21v96
c0 118 -22 161 -53 161c-33 0 -52 -41 -52 -139v-17c0 -91 22 -122 56 -122z" />
    <glyph glyph-name="at" unicode="@" horiz-adv-x="671" 
d="M315 -142c-159 0 -283 120 -281 365c1 264 130 516 346 516c155 0 256 -144 256 -318c0 -175 -60 -350 -174 -350c-65 0 -95 38 -101 86c-27 -50 -60 -82 -104 -82c-48 0 -88 41 -88 125c0 170 70 327 154 327c44 0 66 -34 75 -68l11 59l96 -16l-46 -264
c-4 -23 -7 -43 -7 -70c0 -33 11 -47 33 -47c57 0 106 147 106 305c0 146 -79 271 -216 271c-181 0 -297 -240 -297 -478c-1 -208 98 -320 242 -320c54 0 103 12 152 41l21 -35c-57 -34 -106 -47 -178 -47zM300 159c8 0 15 4 23 12c35 35 55 157 55 212c0 36 -13 51 -31 51
c-8 0 -15 -4 -23 -11c-36 -37 -55 -160 -55 -214c0 -36 12 -50 31 -50z" />
    <glyph glyph-name="E" unicode="E" horiz-adv-x="353" 
d="M44 0v728h277v-116h-155v-188h137v-116h-137v-192h158v-116h-280z" />
    <glyph glyph-name="E" unicode="&#x11a;" horiz-adv-x="353" 
d="M44 0v728h277v-116h-155v-188h137v-116h-137v-192h158v-116h-280z" />
    <glyph glyph-name="E" unicode="&#x118;" horiz-adv-x="353" 
d="M44 0v728h277v-116h-155v-188h137v-116h-137v-192h158v-116h-280z" />
    <glyph glyph-name="E" unicode="&#x116;" horiz-adv-x="353" 
d="M44 0v728h277v-116h-155v-188h137v-116h-137v-192h158v-116h-280z" />
    <glyph glyph-name="E" unicode="&#x114;" horiz-adv-x="353" 
d="M44 0v728h277v-116h-155v-188h137v-116h-137v-192h158v-116h-280z" />
    <glyph glyph-name="E" unicode="&#x112;" horiz-adv-x="353" 
d="M44 0v728h277v-116h-155v-188h137v-116h-137v-192h158v-116h-280z" />
    <glyph glyph-name="H" unicode="H" horiz-adv-x="449" 
d="M44 0v728h122v-304h117v304h122v-728h-122v308h-117v-308h-122z" />
    <glyph glyph-name="H" unicode="&#x126;" horiz-adv-x="449" 
d="M44 0v728h122v-304h117v304h122v-728h-122v308h-117v-308h-122z" />
    <glyph glyph-name="I" unicode="I" horiz-adv-x="214" 
d="M46 0v728h122v-728h-122z" />
    <glyph glyph-name="I" unicode="&#x130;" horiz-adv-x="214" 
d="M46 0v728h122v-728h-122z" />
    <glyph glyph-name="I" unicode="&#x12e;" horiz-adv-x="214" 
d="M46 0v728h122v-728h-122z" />
    <glyph glyph-name="I" unicode="&#x12c;" horiz-adv-x="214" 
d="M46 0v728h122v-728h-122z" />
    <glyph glyph-name="I" unicode="&#x12a;" horiz-adv-x="214" 
d="M46 0v728h122v-728h-122z" />
    <glyph glyph-name="N" unicode="N" horiz-adv-x="455" 
d="M44 0v728h113l137 -391v391h117v-728h-107l-143 408v-408h-117z" />
    <glyph glyph-name="N" unicode="&#x147;" horiz-adv-x="455" 
d="M44 0v728h113l137 -391v391h117v-728h-107l-143 408v-408h-117z" />
    <glyph glyph-name="N" unicode="&#x145;" horiz-adv-x="455" 
d="M44 0v728h113l137 -391v391h117v-728h-107l-143 408v-408h-117z" />
    <glyph glyph-name="N" unicode="&#x143;" horiz-adv-x="455" 
d="M44 0v728h113l137 -391v391h117v-728h-107l-143 408v-408h-117z" />
    <glyph glyph-name="X" unicode="X" horiz-adv-x="415" 
d="M270 728h127l-116 -355l120 -373h-129l-65 230l-66 -230h-127l119 371l-114 357h130l60 -218z" />
    <glyph glyph-name="grave" unicode="`" 
d="M269 598l-102 102l94 50l88 -152h-80z" />
    <glyph glyph-name="d" unicode="d" horiz-adv-x="409" 
d="M152 -10c-68 0 -120 65 -120 264v48c0 198 52 265 120 265c54 0 79 -45 98 -80v246h118v-733h-118v72c-18 -35 -44 -82 -98 -82zM199 103c32 0 52 54 52 157v37c0 101 -20 157 -52 157c-33 0 -49 -56 -49 -157v-37c0 -103 16 -157 49 -157z" />
    <glyph glyph-name="d" unicode="&#x111;" horiz-adv-x="409" 
d="M152 -10c-68 0 -120 65 -120 264v48c0 198 52 265 120 265c54 0 79 -45 98 -80v246h118v-733h-118v72c-18 -35 -44 -82 -98 -82zM199 103c32 0 52 54 52 157v37c0 101 -20 157 -52 157c-33 0 -49 -56 -49 -157v-37c0 -103 16 -157 49 -157z" />
    <glyph glyph-name="d" unicode="&#x10f;" horiz-adv-x="409" 
d="M152 -10c-68 0 -120 65 -120 264v48c0 198 52 265 120 265c54 0 79 -45 98 -80v246h118v-733h-118v72c-18 -35 -44 -82 -98 -82zM199 103c32 0 52 54 52 157v37c0 101 -20 157 -52 157c-33 0 -49 -56 -49 -157v-37c0 -103 16 -157 49 -157z" />
    <glyph glyph-name="o" unicode="o" horiz-adv-x="402" 
d="M201 -10c-99 0 -172 93 -172 271v32c0 179 73 272 172 272s172 -93 172 -272v-32c0 -178 -73 -271 -172 -271zM201 95c33 0 54 54 54 165v35c0 113 -21 165 -54 165s-54 -52 -54 -165v-35c0 -111 21 -165 54 -165z" />
    <glyph glyph-name="o" unicode="&#x1ff;" horiz-adv-x="402" 
d="M201 -10c-99 0 -172 93 -172 271v32c0 179 73 272 172 272s172 -93 172 -272v-32c0 -178 -73 -271 -172 -271zM201 95c33 0 54 54 54 165v35c0 113 -21 165 -54 165s-54 -52 -54 -165v-35c0 -111 21 -165 54 -165z" />
    <glyph glyph-name="o" unicode="&#x151;" horiz-adv-x="402" 
d="M201 -10c-99 0 -172 93 -172 271v32c0 179 73 272 172 272s172 -93 172 -272v-32c0 -178 -73 -271 -172 -271zM201 95c33 0 54 54 54 165v35c0 113 -21 165 -54 165s-54 -52 -54 -165v-35c0 -111 21 -165 54 -165z" />
    <glyph glyph-name="o" unicode="&#x14f;" horiz-adv-x="402" 
d="M201 -10c-99 0 -172 93 -172 271v32c0 179 73 272 172 272s172 -93 172 -272v-32c0 -178 -73 -271 -172 -271zM201 95c33 0 54 54 54 165v35c0 113 -21 165 -54 165s-54 -52 -54 -165v-35c0 -111 21 -165 54 -165z" />
    <glyph glyph-name="o" unicode="&#x14d;" horiz-adv-x="402" 
d="M201 -10c-99 0 -172 93 -172 271v32c0 179 73 272 172 272s172 -93 172 -272v-32c0 -178 -73 -271 -172 -271zM201 95c33 0 54 54 54 165v35c0 113 -21 165 -54 165s-54 -52 -54 -165v-35c0 -111 21 -165 54 -165z" />
    <glyph glyph-name="r" unicode="r" horiz-adv-x="269" 
d="M41 0v557h118v-71c16 48 43 80 91 77v-142h-2c-59 0 -89 -39 -89 -119v-302h-118z" />
    <glyph glyph-name="r" unicode="&#x159;" horiz-adv-x="269" 
d="M41 0v557h118v-71c16 48 43 80 91 77v-142h-2c-59 0 -89 -39 -89 -119v-302h-118z" />
    <glyph glyph-name="r" unicode="&#x157;" horiz-adv-x="269" 
d="M41 0v557h118v-71c16 48 43 80 91 77v-142h-2c-59 0 -89 -39 -89 -119v-302h-118z" />
    <glyph glyph-name="r" unicode="&#x155;" horiz-adv-x="269" 
d="M41 0v557h118v-71c16 48 43 80 91 77v-142h-2c-59 0 -89 -39 -89 -119v-302h-118z" />
    <glyph glyph-name="s" unicode="s" horiz-adv-x="305" 
d="M136 -10c-36 0 -77 10 -113 26v116c42 -22 77 -36 106 -36c30 0 48 17 48 47v1c0 22 -11 43 -64 94c-58 57 -96 106 -96 176v2c0 92 64 149 156 149c35 0 61 -4 92 -15v-116c-26 14 -56 25 -85 25c-31 0 -49 -17 -49 -41v-1c0 -21 10 -38 68 -94c69 -67 92 -112 92 -175
v-2c0 -96 -68 -156 -155 -156z" />
    <glyph glyph-name="s" unicode="&#x219;" horiz-adv-x="305" 
d="M136 -10c-36 0 -77 10 -113 26v116c42 -22 77 -36 106 -36c30 0 48 17 48 47v1c0 22 -11 43 -64 94c-58 57 -96 106 -96 176v2c0 92 64 149 156 149c35 0 61 -4 92 -15v-116c-26 14 -56 25 -85 25c-31 0 -49 -17 -49 -41v-1c0 -21 10 -38 68 -94c69 -67 92 -112 92 -175
v-2c0 -96 -68 -156 -155 -156z" />
    <glyph glyph-name="s" unicode="&#x15f;" horiz-adv-x="305" 
d="M136 -10c-36 0 -77 10 -113 26v116c42 -22 77 -36 106 -36c30 0 48 17 48 47v1c0 22 -11 43 -64 94c-58 57 -96 106 -96 176v2c0 92 64 149 156 149c35 0 61 -4 92 -15v-116c-26 14 -56 25 -85 25c-31 0 -49 -17 -49 -41v-1c0 -21 10 -38 68 -94c69 -67 92 -112 92 -175
v-2c0 -96 -68 -156 -155 -156z" />
    <glyph glyph-name="s" unicode="&#x15b;" horiz-adv-x="305" 
d="M136 -10c-36 0 -77 10 -113 26v116c42 -22 77 -36 106 -36c30 0 48 17 48 47v1c0 22 -11 43 -64 94c-58 57 -96 106 -96 176v2c0 92 64 149 156 149c35 0 61 -4 92 -15v-116c-26 14 -56 25 -85 25c-31 0 -49 -17 -49 -41v-1c0 -21 10 -38 68 -94c69 -67 92 -112 92 -175
v-2c0 -96 -68 -156 -155 -156z" />
    <glyph glyph-name="u" unicode="u" horiz-adv-x="404" 
d="M146 -10c-71 0 -109 60 -109 147v420h118v-393c0 -44 17 -68 44 -68s46 25 46 68v393h118v-557h-118v67c-21 -42 -50 -77 -99 -77z" />
    <glyph glyph-name="u" unicode="&#x173;" horiz-adv-x="404" 
d="M146 -10c-71 0 -109 60 -109 147v420h118v-393c0 -44 17 -68 44 -68s46 25 46 68v393h118v-557h-118v67c-21 -42 -50 -77 -99 -77z" />
    <glyph glyph-name="u" unicode="&#x171;" horiz-adv-x="404" 
d="M146 -10c-71 0 -109 60 -109 147v420h118v-393c0 -44 17 -68 44 -68s46 25 46 68v393h118v-557h-118v67c-21 -42 -50 -77 -99 -77z" />
    <glyph glyph-name="u" unicode="&#x16f;" horiz-adv-x="404" 
d="M146 -10c-71 0 -109 60 -109 147v420h118v-393c0 -44 17 -68 44 -68s46 25 46 68v393h118v-557h-118v67c-21 -42 -50 -77 -99 -77z" />
    <glyph glyph-name="u" unicode="&#x16d;" horiz-adv-x="404" 
d="M146 -10c-71 0 -109 60 -109 147v420h118v-393c0 -44 17 -68 44 -68s46 25 46 68v393h118v-557h-118v67c-21 -42 -50 -77 -99 -77z" />
    <glyph glyph-name="u" unicode="&#x16b;" horiz-adv-x="404" 
d="M146 -10c-71 0 -109 60 -109 147v420h118v-393c0 -44 17 -68 44 -68s46 25 46 68v393h118v-557h-118v67c-21 -42 -50 -77 -99 -77z" />
    <glyph glyph-name="w" unicode="w" horiz-adv-x="557" 
d="M114 -2l-96 559h119l45 -331l52 331h92l51 -331l46 331h117l-96 -559h-112l-53 322l-53 -322h-112z" />
    <glyph glyph-name="w" unicode="&#x1e85;" horiz-adv-x="557" 
d="M114 -2l-96 559h119l45 -331l52 331h92l51 -331l46 331h117l-96 -559h-112l-53 322l-53 -322h-112z" />
    <glyph glyph-name="w" unicode="&#x1e83;" horiz-adv-x="557" 
d="M114 -2l-96 559h119l45 -331l52 331h92l51 -331l46 331h117l-96 -559h-112l-53 322l-53 -322h-112z" />
    <glyph glyph-name="w" unicode="&#x1e81;" horiz-adv-x="557" 
d="M114 -2l-96 559h119l45 -331l52 331h92l51 -331l46 331h117l-96 -559h-112l-53 322l-53 -322h-112z" />
    <glyph glyph-name="w" unicode="&#x175;" horiz-adv-x="557" 
d="M114 -2l-96 559h119l45 -331l52 331h92l51 -331l46 331h117l-96 -559h-112l-53 322l-53 -322h-112z" />
    <glyph glyph-name="z" unicode="z" horiz-adv-x="312" 
d="M18 0v84l150 373h-144v100h270v-84l-150 -373h150v-100h-276z" />
    <glyph glyph-name="z" unicode="&#x17c;" horiz-adv-x="312" 
d="M18 0v84l150 373h-144v100h270v-84l-150 -373h150v-100h-276z" />
    <glyph glyph-name="z" unicode="&#x17a;" horiz-adv-x="312" 
d="M18 0v84l150 373h-144v100h270v-84l-150 -373h150v-100h-276z" />
    <glyph glyph-name="exclamdown" unicode="&#xa1;" horiz-adv-x="239" 
d="M50 587v141h139v-141h-139zM47 0v24l42 479h61l42 -479v-24h-145z" />
    <glyph glyph-name="dieresis" unicode="&#xa8;" 
d="M284 602v109h107v-109h-107zM139 602v109h107v-109h-107z" />
    <glyph glyph-name="acute" unicode="&#xb4;" 
d="M169 598l89 152l93 -50l-101 -102h-81z" />
    <glyph glyph-name="Egrave" unicode="&#xc8;" horiz-adv-x="353" 
d="M234 765h-88l-102 80l102 50zM44 0v728h277v-116h-155v-188h137v-116h-137v-192h158v-116h-280z" />
    <glyph glyph-name="Eacute" unicode="&#xc9;" horiz-adv-x="353" 
d="M132 765l88 130l102 -50l-102 -80h-88zM44 0v728h277v-116h-155v-188h137v-116h-137v-192h158v-116h-280z" />
    <glyph glyph-name="Ecircumflex" unicode="&#xca;" horiz-adv-x="353" 
d="M44 0v728h277v-116h-155v-188h137v-116h-137v-192h158v-116h-280zM58 765l77 122h96l77 -122h-83l-43 51l-43 -51h-81z" />
    <glyph glyph-name="Edieresis" unicode="&#xcb;" horiz-adv-x="353" 
d="M205 768v110h109v-110h-109zM52 768v110h109v-110h-109zM44 0v728h277v-116h-155v-188h137v-116h-137v-192h158v-116h-280z" />
    <glyph glyph-name="Igrave" unicode="&#xcc;" horiz-adv-x="214" 
d="M46 0v728h122v-728h-122zM158 765h-88l-102 80l102 50z" />
    <glyph glyph-name="Iacute" unicode="&#xcd;" horiz-adv-x="214" 
d="M46 0v728h122v-728h-122zM56 765l88 130l102 -50l-102 -80h-88z" />
    <glyph glyph-name="Icircumflex" unicode="&#xce;" horiz-adv-x="214" 
d="M46 0v728h122v-728h-122zM-18 765l77 122h96l77 -122h-83l-43 51l-43 -51h-81z" />
    <glyph glyph-name="Idieresis" unicode="&#xcf;" horiz-adv-x="214" 
d="M46 0v728h122v-728h-122zM129 768v110h109v-110h-109zM-24 768v110h109v-110h-109z" />
    <glyph glyph-name="Ntilde" unicode="&#xd1;" horiz-adv-x="455" 
d="M291 759c-21 0 -44 10 -63 20c-18 8 -34 17 -45 17c-13 0 -19 -10 -27 -41l-69 17c13 81 35 111 76 111c22 0 47 -11 67 -22c17 -8 30 -15 41 -15c13 0 19 10 27 41l69 -18c-13 -80 -35 -110 -76 -110zM44 0v728h113l137 -391v391h117v-728h-107l-143 408v-408h-117z" />
    <glyph glyph-name="ugrave" unicode="&#xf9;" horiz-adv-x="404" 
d="M146 -10c-71 0 -109 60 -109 147v420h118v-393c0 -44 17 -68 44 -68s46 25 46 68v393h118v-557h-118v67c-21 -42 -50 -77 -99 -77zM168 593l-102 102l94 50l88 -152h-80z" />
    <glyph glyph-name="uacute" unicode="&#xfa;" horiz-adv-x="404" 
d="M153 593l89 152l93 -50l-101 -102h-81zM146 -10c-71 0 -109 60 -109 147v420h118v-393c0 -44 17 -68 44 -68s46 25 46 68v393h118v-557h-118v67c-21 -42 -50 -77 -99 -77z" />
    <glyph glyph-name="ucircumflex" unicode="&#xfb;" horiz-adv-x="404" 
d="M75 593l81 144h88l81 -144h-78l-48 66l-48 -66h-76zM146 -10c-71 0 -109 60 -109 147v420h118v-393c0 -44 17 -68 44 -68s46 25 46 68v393h118v-557h-118v67c-21 -42 -50 -77 -99 -77z" />
    <glyph glyph-name="udieresis" unicode="&#xfc;" horiz-adv-x="404" 
d="M219 597v109h107v-109h-107zM74 597v109h107v-109h-107zM146 -10c-71 0 -109 60 -109 147v420h118v-393c0 -44 17 -68 44 -68s46 25 46 68v393h118v-557h-118v67c-21 -42 -50 -77 -99 -77z" />
    <glyph glyph-name="scaron" unicode="&#x161;" horiz-adv-x="305" 
d="M280 747l-81 -144h-88l-81 144h78l48 -65l48 65h76zM136 -10c-36 0 -77 10 -113 26v116c42 -22 77 -36 106 -36c30 0 48 17 48 47v1c0 22 -11 43 -64 94c-58 57 -96 106 -96 176v2c0 92 64 149 156 149c35 0 61 -4 92 -15v-116c-26 14 -56 25 -85 25
c-31 0 -49 -17 -49 -41v-1c0 -21 10 -38 68 -94c69 -67 92 -112 92 -175v-2c0 -96 -68 -156 -155 -156z" />
    <glyph glyph-name="zcaron" unicode="&#x17e;" horiz-adv-x="312" 
d="M285 742l-81 -144h-88l-81 144h78l48 -65l48 65h76zM18 0v84l150 373h-144v100h270v-84l-150 -373h150v-100h-276z" />
    <glyph glyph-name="circumflex" unicode="&#x2c6;" 
d="M140 598l81 144h88l81 -144h-78l-48 66l-48 -66h-76z" />
    <glyph glyph-name="caron" unicode="&#x2c7;" 
d="M390 742l-81 -144h-88l-81 144h78l48 -65l48 65h76z" />
    <glyph glyph-name="acute.cap" 
d="M169 765l88 130l102 -50l-102 -80h-88z" />
    <glyph glyph-name="grave.cap" 
d="M349 765h-88l-102 80l102 50z" />
    <glyph glyph-name="circumflex.cap" 
d="M140 765l77 122h96l77 -122h-83l-43 51l-43 -51h-81z" />
    <glyph glyph-name="tilde.cap" 
d="M329 764c-21 0 -44 10 -63 20c-18 8 -34 17 -45 17c-13 0 -19 -10 -27 -41l-69 17c13 81 35 111 76 111c22 0 47 -11 67 -22c17 -8 30 -15 41 -15c13 0 19 10 27 41l69 -18c-13 -80 -35 -110 -76 -110z" />
    <glyph glyph-name="dieresis.cap" 
d="M287 768v110h109v-110h-109zM134 768v110h109v-110h-109z" />
    <glyph glyph-name="hcoslug" horiz-adv-x="694" 
d="M273 18h-26c0 -9 3 -12 10 -12c5 0 8 2 9 7h7c-2 -8 -7 -14 -18 -14c-13 0 -21 8 -21 20s9 21 20 21c14 0 20 -9 19 -22zM254 35c-4 0 -7 -3 -7 -12h14c0 8 -2 12 -7 12zM195 78c5 0 8 4 8 16c0 11 -3 15 -8 15s-8 -4 -8 -15c0 -12 3 -16 8 -16zM210 4c5 0 8 4 8 16
c0 11 -3 15 -8 15s-8 -4 -8 -15c0 -12 3 -16 8 -16zM210 -1c-12 0 -21 8 -21 21c0 12 9 20 21 20s21 -8 21 -20s-9 -21 -21 -21zM546 4c5 0 8 4 8 16c0 11 -3 15 -8 15s-8 -4 -8 -15c0 -12 3 -16 8 -16zM546 -1c-12 0 -21 8 -21 21c0 12 9 20 21 20s21 -8 21 -20
s-9 -21 -21 -21zM125 74v7h7v41h-7v7h51v-20h-8c-2 11 -4 13 -11 13h-12v-18h4c5 0 5 1 6 8h7v-23h-7c-1 7 -1 8 -6 8h-4v-16h10v-7h-30zM195 73c-12 0 -21 8 -21 21c0 12 9 20 21 20s21 -8 21 -20s-9 -21 -21 -21zM644 -100v800h-594v-800h594zM498 -1c-18 0 -29 11 -29 28
c0 18 13 30 27 30c7 0 12 -3 16 -7l1 6h8v-22h-8c-4 12 -7 16 -15 16s-14 -6 -14 -22c0 -15 6 -22 16 -22c8 0 13 7 14 16h8c-1 -14 -9 -23 -24 -23zM372 80c5 0 7 5 7 13s-2 13 -7 13c-6 0 -8 -6 -8 -13c0 -8 2 -13 8 -13zM276 0v7h6v25h-7v7h7v1c0 13 9 19 19 19
c3 0 7 -1 9 -2l10 2v-52h6v-7h-23v7h5v25h-14v-25h5v-7h-23zM368 0v7h6v25h-6v7h18v-10c3 8 7 11 12 11s8 -3 8 -8c0 -4 -3 -7 -7 -7c-3 0 -6 2 -6 6v1c-2 0 -5 -4 -7 -9v-16h8v-7h-26zM352 73v52h-6v7h18v-27c2 6 7 9 13 9c9 0 15 -8 15 -20c0 -9 -4 -21 -16 -21
c-7 0 -11 3 -14 8l-4 -8h-6zM400 75c7 0 8 -7 5 -10c4 0 7 3 8 8c-4 10 -16 33 -16 33h-5v7h25v-7h-6l9 -20l8 20h-5v7h17v-7h-5l-13 -31c-4 -10 -9 -16 -18 -16c-7 0 -11 4 -11 9c0 4 3 7 7 7zM247 428c0 17 11 29 27 29c17 0 29 -15 29 -38c0 -17 -7 -33 -18 -50
c-23 22 -38 36 -38 59zM302 74v14h7c4 -6 7 -9 12 -9c3 0 5 2 5 4c0 8 -24 3 -24 19c0 6 5 12 14 12c5 0 9 -2 11 -5l2 5h6v-13h-7c-3 4 -6 7 -10 7c-3 0 -5 -2 -5 -4c0 -8 24 -2 24 -18c0 -7 -5 -13 -14 -13c-7 0 -10 3 -13 5l-1 -4h-7zM261 219c-30 0 -52 23 -52 54
c0 15 5 29 16 40c18 -17 46 -47 74 -82c-11 -9 -23 -12 -38 -12zM274 122l12 2v-11h13v-7h-13v-20c0 -3 1 -5 4 -5c2 0 4 2 5 7l5 -2c-2 -9 -6 -13 -14 -13s-12 5 -12 13v20h-7v7h7v9zM428 306c-15 -9 -31 -22 -46 -42c25 -29 42 -41 62 -41c21 0 33 12 43 29l7 -2
c-2 -58 -37 -94 -80 -94c-30 0 -52 11 -85 45c-28 -31 -62 -45 -104 -45c-60 0 -109 40 -109 93c0 42 29 73 82 91c-21 22 -31 40 -31 69c0 43 42 85 109 85c62 0 95 -39 95 -74c0 -13 -3 -24 -9 -34c27 1 47 -10 49 -37c16 24 35 38 60 38c28 0 50 -21 50 -52
s-22 -54 -50 -54c-18 0 -34 10 -43 25zM219 74v7h6v25h-6v7h17v-10c3 7 7 11 14 11c9 0 12 -6 12 -14v-19h6v-7h-22v7h4v18c0 4 -2 7 -6 7s-7 -4 -7 -10v-15h4v-7h-22zM446 33h18v-7h-5c-3 -6 -6 -10 -9 -14c2 -3 4 -5 6 -5s3 1 4 5l5 -1c-2 -7 -5 -12 -13 -12
c-5 0 -8 1 -12 6c-4 -4 -9 -6 -15 -6c-12 0 -18 6 -18 14s6 13 13 15c-4 4 -6 7 -6 12c0 7 7 14 17 14c9 0 14 -6 14 -12s-4 -9 -11 -12c5 -5 8 -9 12 -13c2 2 5 6 6 9h-6v7zM429 6c2 0 5 1 8 3c-5 6 -9 11 -14 16c-2 -2 -4 -5 -4 -9c0 -6 4 -10 10 -10zM294 42v-3h14v5
c-3 0 -6 2 -6 6c0 2 1 3 1 3s-1 1 -3 1c-3 0 -6 -2 -6 -12zM425 43c0 -3 2 -6 6 -10c3 2 5 5 5 9c0 3 -2 6 -6 6c-3 0 -5 -2 -5 -5zM312 342c19 13 33 24 42 34c23 -23 18 -47 -1 -80c-13 15 -25 30 -41 46zM366 18h-26c0 -9 3 -12 10 -12c5 0 8 2 9 7h7
c-2 -8 -7 -14 -18 -14c-13 0 -21 8 -21 20s9 21 20 21c14 0 20 -9 19 -22zM347 35c-4 0 -7 -3 -7 -12h14c0 8 -2 12 -7 12zM124 0v7h8v41h-8v7h29v-7h-8v-16h22v16h-8v7h29v-7h-8v-41h8v-7h-29v7h8v18h-22v-18h8v-7h-29zM576 13c4 0 7 -3 7 -7s-3 -7 -7 -7s-7 3 -7 7
s3 7 7 7z" />
  </font>
</defs>
</svg>
