<?xml version="1.0" standalone="no"?>
<!DOCTYPE svg PUBLIC "-//W3C//DTD SVG 20010904//EN"
 "http://www.w3.org/TR/2001/REC-SVG-20010904/DTD/svg10.dtd">
<svg version="1.0" xmlns="http://www.w3.org/2000/svg"
 width="1094.000000pt" height="1323.000000pt" viewBox="0 0 1094.000000 1323.000000"
 preserveAspectRatio="xMidYMid meet">
<metadata>
Created by potrace 1.15, written by Peter Selinger 2001-2017
</metadata>
<g transform="translate(0.000000,1323.000000) scale(0.100000,-0.100000)"
fill="#000000" stroke="none">
<path d="M7840 13191 c-91 -16 -199 -41 -240 -56 -41 -15 -124 -43 -185 -62
-249 -80 -454 -215 -719 -473 -184 -179 -262 -272 -337 -401 -37 -63 -83 -141
-102 -173 -72 -116 -245 -604 -273 -766 -34 -202 -28 -679 12 -889 24 -131
158 -497 241 -664 l33 -67 -82 -54 c-46 -29 -175 -113 -288 -186 -113 -73
-308 -199 -435 -278 -126 -80 -367 -233 -535 -342 -168 -108 -366 -235 -440
-282 -353 -223 -1642 -1076 -1764 -1168 -38 -28 -74 -49 -80 -46 -6 3 -42 31
-81 61 -112 89 -491 266 -704 329 -130 38 -417 6 -664 -75 -236 -77 -427 -193
-615 -373 -158 -153 -254 -284 -356 -486 -247 -495 -288 -974 -125 -1464 80
-242 192 -433 351 -601 249 -263 559 -422 903 -464 646 -79 1294 304 1625 959
l30 59 42 -18 c24 -11 414 -182 868 -381 1003 -440 1248 -547 1282 -555 l25
-6 -37 -97 c-44 -112 -81 -257 -110 -427 -62 -361 -65 -591 -16 -1200 9 -113
113 -506 166 -625 23 -52 62 -147 86 -210 57 -146 122 -268 235 -440 49 -75
89 -143 89 -151 0 -7 24 -38 54 -69 30 -30 81 -85 113 -121 122 -139 314 -312
461 -415 280 -196 713 -391 986 -443 121 -23 322 -48 502 -61 298 -22 661 39
1079 182 104 35 424 194 553 275 226 141 423 317 714 638 158 173 415 577 508
798 70 165 175 458 205 570 14 50 46 216 71 367 l46 275 -5 310 c-4 272 -8
329 -30 465 -71 425 -131 614 -317 995 -128 261 -226 401 -476 678 -174 193
-380 362 -578 475 -258 148 -400 203 -811 316 -403 110 -696 146 -960 116
-334 -38 -924 -266 -1202 -464 -182 -130 -355 -268 -433 -346 -297 -297 -442
-477 -557 -690 -22 -41 -73 -133 -113 -204 -39 -71 -95 -186 -122 -255 -27
-69 -52 -129 -54 -133 -3 -4 -24 6 -47 22 -23 16 -224 112 -447 214 -481 218
-540 245 -1179 546 -310 145 -501 230 -513 227 -15 -4 -18 -2 -13 11 15 39 55
186 69 254 65 314 38 682 -71 978 -47 127 -142 308 -215 411 -57 79 -59 84
-42 97 11 7 150 98 309 202 508 329 835 545 1410 930 308 206 655 437 770 514
116 76 332 222 480 324 149 102 335 230 415 285 80 55 150 100 156 101 5 1 47
-44 91 -99 89 -110 253 -262 368 -340 257 -175 393 -240 630 -300 200 -51 310
-64 540 -60 184 3 209 5 320 33 421 107 830 336 1088 611 197 209 402 526 491
757 49 128 140 440 162 559 16 84 19 147 19 390 -1 324 -9 393 -69 601 -107
367 -210 577 -394 805 -83 103 -291 302 -390 372 -150 107 -350 201 -548 257
-57 16 -150 52 -208 81 l-105 52 -173 3 c-156 4 -190 1 -338 -25z m825 -231
c202 -70 322 -134 491 -261 235 -176 415 -392 544 -649 87 -175 126 -303 180
-590 28 -147 32 -187 33 -370 2 -226 -9 -323 -64 -549 -52 -213 -190 -525
-314 -706 -195 -287 -460 -541 -714 -683 -89 -49 -279 -133 -375 -166 -193
-65 -450 -95 -654 -76 -468 42 -829 227 -1132 580 -210 244 -314 442 -399 761
-61 232 -66 271 -65 554 0 240 2 270 27 396 61 311 180 620 319 829 228 341
534 610 884 777 156 74 270 110 441 138 125 21 182 25 368 25 178 1 224 3 239
15 30 23 64 18 191 -25z m-6575 -5472 c36 -11 106 -40 155 -64 504 -241 806
-750 808 -1364 1 -588 -282 -1128 -762 -1451 -184 -124 -304 -174 -506 -209
-320 -55 -556 -32 -791 80 -285 135 -501 349 -649 647 -256 513 -189 1216 163
1713 79 112 282 321 367 377 88 59 252 148 347 189 127 54 220 72 438 84 107
6 218 15 245 20 61 10 101 5 185 -22z m6916 -1404 c262 -104 354 -150 519
-259 248 -164 516 -430 692 -688 67 -96 223 -395 293 -561 79 -185 169 -615
194 -928 12 -152 12 -187 -5 -375 -34 -371 -62 -556 -105 -697 -48 -153 -224
-581 -283 -687 -32 -58 -87 -152 -122 -208 -69 -110 -218 -313 -234 -318 -5
-1 -25 34 -44 80 -51 122 -171 372 -218 452 -54 93 -201 302 -277 394 -87 106
-258 247 -405 334 -213 126 -297 163 -402 175 l-57 7 74 93 c85 108 137 210
188 368 40 127 45 206 27 459 -15 218 -50 360 -131 532 -121 259 -332 439
-591 504 -127 33 -278 24 -416 -23 -55 -19 -136 -55 -179 -79 -178 -101 -342
-306 -437 -546 -47 -121 -51 -136 -61 -268 -30 -387 11 -572 201 -908 24 -44
42 -81 39 -84 -3 -3 -38 -20 -78 -38 -149 -66 -463 -216 -507 -242 -86 -49
-325 -228 -396 -294 -38 -37 -87 -91 -108 -120 -70 -101 -281 -404 -311 -449
-17 -25 -47 -77 -66 -117 l-36 -72 -76 132 c-109 188 -165 337 -243 644 -74
296 -105 739 -74 1073 31 339 211 935 360 1192 94 162 293 450 392 568 296
353 554 549 1068 811 85 44 326 123 499 164 133 31 182 38 345 46 105 5 237
13 295 18 58 4 180 8 271 9 l167 2 238 -96z m-883 -1510 c186 -47 349 -176
460 -363 93 -157 135 -292 144 -472 6 -111 5 -118 -21 -175 -15 -32 -36 -97
-47 -143 -41 -176 -127 -330 -254 -456 -135 -134 -244 -186 -411 -193 -121 -5
-188 8 -280 53 -300 146 -494 550 -454 941 34 325 192 610 410 738 153 90 290
111 453 70z m-763 -1813 c20 -4 65 -30 100 -56 79 -58 201 -117 295 -141 105
-27 286 -25 389 5 89 25 204 79 256 120 34 27 37 28 108 19 40 -5 94 -17 120
-27 60 -23 319 -170 397 -226 175 -124 411 -440 569 -760 85 -172 120 -261
157 -406 l31 -121 -63 -65 c-57 -57 -177 -154 -417 -336 -77 -59 -372 -214
-532 -280 -138 -57 -282 -96 -494 -132 -381 -66 -501 -66 -876 0 -411 72 -640
179 -1066 497 -153 115 -240 202 -356 355 l-76 102 54 117 c83 182 144 284
290 489 155 216 211 287 263 331 104 87 280 218 344 255 39 24 146 91 237 150
191 124 199 127 270 110z"/>
<path d="M8895 11926 c-33 -15 -224 -207 -349 -351 -101 -116 -254 -330 -444
-620 -196 -300 -291 -434 -404 -576 -146 -182 -155 -192 -171 -186 -8 3 -72
119 -143 259 -108 213 -138 262 -184 311 -48 49 -61 57 -93 57 -33 0 -37 -3
-37 -26 0 -14 13 -43 29 -63 15 -20 39 -56 51 -81 35 -70 145 -384 180 -517
38 -142 63 -192 110 -215 60 -31 100 -24 182 31 58 39 99 81 196 199 179 216
267 335 330 442 266 457 341 573 594 922 215 297 250 352 246 393 -3 25 -8 30
-33 32 -16 2 -43 -3 -60 -11z"/>
<path d="M1900 6837 c0 -65 193 -395 503 -862 205 -308 282 -407 310 -403 12
2 23 10 25 18 6 32 -720 1228 -762 1255 -11 7 -33 17 -48 20 -27 7 -28 5 -28
-28z"/>
<path d="M1293 6742 c-22 -23 -44 -79 -105 -268 -43 -131 -87 -274 -98 -318
-18 -73 -19 -81 -4 -112 9 -19 32 -43 51 -55 33 -21 35 -21 73 -4 57 26 69 43
91 136 11 46 24 99 30 118 l11 33 35 -61 c19 -34 59 -117 88 -185 29 -68 88
-179 130 -247 93 -148 238 -427 291 -559 20 -52 46 -105 57 -117 28 -31 77
-46 111 -33 33 12 60 71 51 109 -32 130 -200 485 -339 716 -53 88 -110 196
-127 240 -16 44 -70 155 -120 248 -86 163 -108 227 -73 213 17 -6 226 -129
382 -224 85 -52 116 -57 127 -21 15 45 -32 85 -290 251 -115 74 -224 143 -242
152 -50 25 -97 21 -130 -12z"/>
<path d="M777 6173 c-24 -24 -1 -86 132 -346 216 -425 275 -520 519 -832 154
-198 184 -223 190 -160 2 24 -24 67 -138 230 -197 280 -274 403 -433 695 -140
256 -239 420 -255 420 -5 0 -12 -3 -15 -7z"/>
<path d="M8731 1995 c-148 -47 -189 -238 -74 -347 85 -81 211 -74 290 15 134
152 -23 393 -216 332z m126 -36 c38 -14 83 -57 99 -96 49 -113 -38 -243 -161
-243 -94 0 -175 80 -175 174 0 121 124 208 237 165z"/>
</g>
</svg>
