<?xml version="1.0" standalone="no"?>
<!DOCTYPE svg PUBLIC "-//W3C//DTD SVG 20010904//EN"
 "http://www.w3.org/TR/2001/REC-SVG-20010904/DTD/svg10.dtd">
<svg version="1.0" xmlns="http://www.w3.org/2000/svg"
 width="708.000000pt" height="1017.000000pt" viewBox="0 0 708.000000 1017.000000"
 preserveAspectRatio="xMidYMid meet">
<metadata>
Created by potrace 1.15, written by Peter Selinger 2001-2017
</metadata>
<g transform="translate(0.000000,1017.000000) scale(0.100000,-0.100000)"
fill="#000000" stroke="none">
<path d="M3830 10148 c-67 -35 -71 -48 -33 -116 34 -63 39 -87 53 -277 5 -71
17 -170 26 -218 14 -73 15 -101 6 -160 -18 -121 -123 -304 -168 -295 -28 5
-39 55 -26 118 29 137 5 237 -74 312 -121 114 -270 32 -282 -157 -5 -94 23
-171 86 -232 24 -24 42 -46 40 -49 -14 -13 -119 40 -155 79 -127 138 -202 320
-203 491 0 62 3 72 30 103 22 25 30 44 30 72 0 59 -25 83 -93 89 -53 4 -58 2
-88 -27 -31 -32 -32 -33 -26 -104 16 -195 39 -411 53 -487 28 -156 108 -276
237 -358 34 -22 69 -47 76 -56 16 -19 16 -6 -24 -485 -18 -209 -22 -308 -15
-315 15 -15 12 -86 -10 -241 -33 -232 -27 -259 55 -272 20 -3 39 -11 41 -17
10 -25 -14 -307 -28 -323 -7 -9 -45 -31 -85 -49 -79 -36 -102 -62 -110 -123
l-5 -40 -67 -6 c-36 -4 -73 -8 -81 -11 -10 -2 -24 13 -40 44 -31 59 -92 93
-160 91 -49 -2 -75 8 -103 39 -20 22 -81 287 -70 305 4 7 17 20 30 30 13 10
23 28 23 41 0 35 -49 174 -91 258 -44 88 -44 88 -24 88 8 0 15 6 15 13 0 7
-32 107 -70 222 -78 232 -90 298 -70 381 12 50 11 71 -10 205 -16 102 -27 146
-34 139 -7 -7 -5 -49 7 -133 23 -160 22 -194 -8 -279 -30 -85 -30 -90 -8 -86
14 2 30 -37 89 -217 39 -121 70 -221 69 -223 -6 -7 -450 -123 -463 -120 -20 4
-57 162 -73 308 -9 84 -19 123 -50 196 -24 56 -39 107 -39 132 l0 40 -110 37
-110 37 21 41 c34 67 30 65 126 51 110 -17 133 -17 133 -1 1 6 26 31 57 55
l57 42 42 -41 43 -42 7 29 c4 16 17 43 30 59 25 34 54 114 54 151 0 24 2 25
62 22 l62 -3 9 60 c11 78 -5 182 -42 260 -15 33 -71 124 -124 202 -76 111
-101 158 -120 220 -20 66 -28 79 -50 87 -24 9 -32 5 -72 -34 -25 -24 -45 -50
-45 -57 0 -7 17 -29 38 -50 55 -55 82 -106 160 -308 81 -210 92 -251 92 -338
0 -102 -45 -217 -84 -217 -20 0 -44 59 -56 138 -13 89 -36 137 -89 185 -46 42
-105 62 -153 53 -42 -8 -91 -58 -108 -110 -34 -105 43 -263 151 -311 21 -10
39 -22 39 -27 0 -10 -2 -10 -74 2 -144 23 -330 211 -388 391 -21 67 -21 71 -6
114 13 34 14 52 7 79 -15 54 -48 66 -121 45 -38 -10 -68 -48 -68 -85 0 -10 29
-90 64 -178 35 -89 71 -181 80 -206 22 -64 86 -157 159 -234 61 -65 64 -67
177 -104 l115 -37 27 -105 c34 -127 94 -459 108 -590 10 -103 54 -356 71 -407
12 -36 25 -43 85 -43 37 0 44 -3 49 -22 30 -132 49 -218 53 -241 4 -25 -4 -38
-57 -91 -61 -61 -87 -112 -75 -148 4 -14 -5 -22 -38 -35 -86 -34 -338 -163
-449 -230 -362 -217 -723 -547 -995 -910 -279 -372 -497 -883 -589 -1378 -42
-231 -57 -395 -57 -635 -1 -305 25 -520 98 -820 67 -274 199 -631 293 -789 64
-109 101 -188 117 -254 12 -46 29 -79 68 -127 29 -36 82 -103 118 -150 101
-130 590 -608 733 -717 527 -398 1107 -633 1780 -720 215 -27 666 -25 876 5
444 63 739 152 1096 331 339 169 604 361 879 636 372 372 603 727 787 1212 94
245 155 490 182 720 19 172 46 676 36 683 -4 3 -11 44 -14 91 -4 48 -19 156
-33 240 -98 581 -327 1134 -655 1576 -293 397 -697 756 -1115 992 l-90 51 10
49 c17 88 -18 159 -102 203 -20 11 -39 32 -48 54 -15 35 -14 40 31 174 l47
138 43 17 c24 9 48 21 53 28 26 31 72 390 48 366 -3 -2 -18 -72 -35 -154 -17
-83 -36 -160 -43 -172 -11 -22 -18 -23 -110 -23 l-98 0 0 88 c0 61 -4 94 -14
108 -15 19 -15 19 -34 -1 -10 -11 -26 -45 -35 -75 -28 -92 -34 -96 -110 -83
-84 14 -119 32 -131 64 -8 22 -3 36 28 85 20 33 53 110 73 172 32 104 37 113
57 108 11 -3 121 -29 244 -58 160 -37 225 -49 233 -41 6 6 24 69 39 139 70
318 88 369 149 428 18 18 43 62 61 108 40 102 37 108 -8 22 -47 -89 -93 -147
-136 -174 -31 -19 -34 -24 -29 -58 3 -24 -10 -102 -36 -217 -47 -201 -55 -225
-74 -225 -24 0 -438 127 -449 138 -12 12 48 184 103 294 31 62 42 99 54 184 9
67 22 118 35 139 11 18 20 35 20 38 0 3 -31 43 -70 89 -75 90 -75 87 -9 126
l35 21 88 -71 c65 -52 90 -67 96 -57 6 8 33 13 81 13 l74 1 8 -48 c7 -35 13
-47 24 -43 7 3 58 37 113 76 54 38 102 70 107 70 5 0 25 -14 45 -30 l36 -30
48 62 c26 34 55 80 65 103 29 67 40 185 31 340 -9 146 -4 241 18 311 9 31 10
46 1 62 -10 19 -17 21 -59 15 -99 -13 -100 -14 -81 -130 10 -61 8 -86 -20
-253 -40 -229 -54 -288 -92 -362 -46 -91 -135 -168 -194 -168 -26 0 -18 65 17
133 28 54 32 72 33 137 0 126 -62 210 -154 210 -109 0 -181 -99 -181 -246 0
-50 6 -73 30 -119 17 -32 28 -60 26 -62 -10 -11 -96 73 -119 116 -56 105 -72
176 -72 321 0 118 3 141 22 183 12 26 29 50 38 53 20 8 45 56 45 88 0 37 -52
76 -101 76 -62 0 -85 -30 -94 -120 -4 -41 -19 -122 -32 -180 -34 -142 -41
-292 -19 -401 19 -94 24 -103 97 -185 80 -92 82 -96 69 -146 -25 -97 -66 -214
-147 -416 -77 -197 -83 -215 -69 -231 15 -16 12 -27 -38 -132 -30 -63 -67
-151 -83 -197 l-28 -83 27 -22 c15 -12 36 -29 48 -37 l22 -15 -43 -125 c-23
-69 -49 -133 -57 -142 -8 -10 -31 -20 -51 -24 -77 -12 -141 -35 -154 -55 -14
-19 -17 -20 -73 -5 -33 8 -98 22 -146 32 l-86 16 5 33 c13 81 -64 182 -161
210 -81 24 -96 47 -96 150 0 45 3 123 6 173 6 76 10 92 23 92 9 0 31 14 49 30
l33 30 -7 83 c-3 45 -12 132 -19 192 -8 63 -14 239 -16 410 -2 322 1 345 52
417 17 23 25 58 35 147 8 64 19 140 25 170 8 38 8 56 0 64 -6 6 -11 7 -11 2 0
-6 -13 -80 -29 -166 -32 -171 -52 -227 -111 -306 -22 -29 -40 -57 -40 -63 0
-13 17 -13 25 0 21 33 25 -11 25 -245 l0 -255 -261 0 -261 0 4 168 c2 139 6
173 22 205 16 33 18 49 11 125 -10 98 -11 205 -5 241 4 21 -7 33 -85 88 -49
35 -94 68 -98 72 -8 8 60 80 84 89 5 2 54 -17 110 -42 l101 -46 30 25 c16 14
47 28 69 31 22 4 42 11 45 15 12 19 24 6 50 -51 29 -66 44 -76 44 -30 0 17 4
30 9 30 22 0 109 92 131 139 13 28 27 51 32 51 5 0 31 -11 58 -25 27 -14 51
-25 54 -25 2 0 19 37 36 82 55 142 53 181 -25 468 -57 209 -67 256 -66 322 1
65 -2 81 -19 98 -26 26 -46 25 -100 -2z m88 -42 c8 -18 8 -34 0 -60 -13 -42
-7 -72 78 -391 30 -110 54 -211 54 -225 0 -24 -52 -186 -64 -197 -3 -4 -23 2
-43 11 l-38 17 0 182 c0 223 -32 476 -70 568 -32 75 -31 82 8 102 45 22 62 21
75 -7z m-810 -252 c30 -20 27 -51 -8 -98 -28 -36 -30 -46 -30 -120 0 -139 37
-267 110 -389 22 -36 40 -75 40 -87 0 -11 -17 -39 -39 -62 l-38 -41 -36 64
c-57 102 -73 169 -102 409 -14 124 -29 244 -32 266 -4 34 -1 46 17 64 18 18
29 21 58 15 21 -3 47 -13 60 -21z m-1036 -174 c4 -14 10 -42 13 -62 4 -23 56
-120 138 -255 l132 -218 0 -102 c0 -56 -3 -104 -7 -108 -3 -4 -26 -3 -50 2
-37 8 -43 12 -41 33 4 53 -19 137 -63 233 -25 56 -61 140 -79 188 -45 117 -71
167 -111 212 -19 20 -34 41 -34 46 0 16 62 62 79 59 8 -2 19 -14 23 -28z
m1465 -161 c74 -28 133 -126 133 -222 0 -108 -48 -172 -128 -172 -63 0 -103
30 -138 102 -54 110 -30 248 50 287 37 19 46 19 83 5z m2230 -114 c3 -9 -4
-45 -16 -81 -19 -59 -21 -87 -21 -308 l0 -243 -30 -59 c-16 -33 -42 -72 -58
-87 l-28 -27 -34 28 -33 28 31 65 c26 54 36 98 63 279 18 118 33 258 33 310
l1 95 35 6 c19 4 39 7 43 8 4 0 10 -6 14 -14z m-807 -21 c57 -23 58 -62 4
-109 -84 -74 -105 -302 -44 -481 24 -68 20 -86 -23 -112 -75 -46 -73 -48 -88
100 -11 117 -11 144 4 233 9 55 23 150 33 212 15 105 40 173 64 173 5 0 28 -7
50 -16z m-3536 -127 c19 -14 19 -24 0 -114 -4 -21 1 -55 16 -100 39 -118 79
-182 172 -275 49 -47 88 -93 88 -102 0 -22 -38 -96 -49 -96 -22 0 -131 134
-168 206 -45 87 -183 417 -183 438 0 18 31 43 60 49 43 8 46 7 64 -6z m538
-216 c116 -74 145 -256 48 -306 -72 -37 -159 4 -207 97 -44 85 -43 152 3 207
35 42 91 43 156 2z m3342 -93 c47 -47 80 -149 65 -203 -25 -91 -73 -135 -148
-135 -134 0 -165 263 -41 348 47 32 85 29 124 -10z m-1440 -935 c3 -38 9 -127
13 -199 6 -124 5 -132 -13 -142 -20 -10 -173 -52 -192 -52 -5 0 -17 32 -26 71
-16 69 -49 139 -66 139 -12 0 -28 -55 -36 -123 -3 -33 -15 -68 -26 -82 -18
-23 -27 -25 -93 -25 -133 0 -157 25 -123 131 15 46 22 102 25 197 5 126 7 132
27 133 31 2 371 15 442 17 l61 2 7 -67z m-1301 -286 c31 -78 57 -152 57 -164
0 -12 -12 -30 -27 -41 -41 -29 -133 -82 -142 -82 -4 0 -18 23 -31 51 -28 59
-87 116 -103 100 -7 -7 -6 -36 3 -95 16 -102 14 -106 -73 -135 -71 -24 -110
-27 -126 -7 -6 7 -15 56 -20 107 -5 52 -19 132 -31 178 -11 46 -20 84 -18 85
12 6 435 145 444 145 6 1 36 -63 67 -142z m1047 -98 c0 -10 16 -36 35 -58 l35
-38 0 -268 0 -268 -37 7 c-21 3 -68 6 -104 6 l-65 0 10 73 c10 74 10 84 1 317
-3 74 -2 140 2 145 5 6 25 23 46 39 21 15 43 39 49 52 12 26 28 23 28 -7z
m-1200 -210 c17 -33 25 -39 53 -39 l32 0 53 -203 c29 -111 55 -211 58 -223 5
-18 -3 -23 -77 -42 -45 -12 -84 -20 -87 -17 -3 3 -9 34 -13 70 -5 37 -32 127
-64 215 l-57 150 31 37 c21 25 31 48 31 71 0 41 13 35 40 -19z m2531 -225 l21
-23 -62 -213 c-35 -117 -66 -216 -70 -221 -5 -6 -144 44 -157 56 -1 2 10 37
26 78 16 40 36 121 46 179 27 172 30 179 78 200 23 10 51 25 62 33 19 15 20
14 27 -25 4 -23 17 -51 29 -64z m-1527 -47 c11 -8 19 -32 23 -70 l6 -57 -122
0 c-86 0 -121 3 -121 12 0 17 80 91 120 110 42 21 70 22 94 5z m553 -37 c23
-14 35 -31 43 -62 7 -24 16 -53 21 -65 5 -13 5 -23 1 -23 -30 1 -305 40 -309
44 -3 3 5 27 18 53 20 40 31 50 64 60 62 18 126 16 162 -7z m-1066 -71 c37
-40 36 -47 -3 -53 -18 -3 -72 -12 -119 -21 -109 -19 -119 -19 -119 3 0 44 93
101 163 102 42 0 53 -4 78 -31z m-527 -101 c35 -57 33 -60 -70 -96 -53 -19
-98 -31 -102 -27 -11 10 30 74 70 111 45 40 81 44 102 12z m1351 -12 c197 -10
564 -86 810 -168 567 -188 1103 -536 1486 -964 284 -318 409 -494 555 -784 94
-188 197 -439 197 -481 0 -19 -17 -80 -36 -135 -53 -146 -60 -181 -55 -306 4
-108 7 -122 66 -294 34 -99 62 -191 62 -204 0 -23 0 -23 -22 -4 -32 28 -183
347 -244 514 -41 110 -61 152 -84 173 -40 35 -58 34 -116 -8 -151 -108 -179
-117 -368 -115 -224 2 -214 3 -232 -24 -14 -23 -14 -28 1 -59 23 -49 78 -111
123 -139 20 -12 65 -30 100 -38 l63 -15 -57 -65 c-84 -96 -124 -162 -183 -304
-29 -69 -61 -131 -71 -136 -20 -10 -59 8 -157 74 -105 71 -225 180 -344 314
-197 221 -201 224 -250 220 -36 -3 -44 -7 -52 -31 -19 -59 79 -305 186 -463
30 -44 62 -95 71 -112 43 -84 263 -256 341 -268 27 -4 91 2 167 14 162 27 207
32 212 23 8 -12 -69 -176 -111 -238 -21 -32 -103 -152 -182 -267 -205 -298
-242 -388 -261 -640 -11 -144 -48 -322 -78 -382 -27 -53 -45 -67 -132 -107
-113 -52 -184 -127 -274 -290 -31 -55 -47 -72 -85 -91 -70 -36 -91 -64 -101
-135 -10 -74 -38 -132 -88 -184 -58 -60 -88 -73 -241 -107 -130 -29 -149 -31
-197 -21 -99 22 -314 144 -356 202 -33 44 -38 93 -22 213 24 180 4 308 -70
436 -87 152 -88 205 -4 334 49 77 68 141 68 235 0 117 -10 140 -97 221 -93 87
-101 92 -398 232 l-240 113 -145 3 c-107 3 -163 0 -213 -12 -129 -30 -386 -12
-474 32 -55 29 -137 122 -179 206 -29 58 -34 79 -34 135 1 79 23 139 99 261
77 123 82 141 89 335 7 158 9 174 34 226 69 140 223 237 468 294 63 15 194 51
290 80 261 80 295 88 400 89 116 0 203 -24 305 -85 93 -56 140 -61 240 -24
107 39 182 34 257 -17 29 -20 63 -41 75 -47 33 -17 134 -13 194 7 30 11 96 29
147 42 108 26 150 51 176 104 41 84 -23 173 -179 247 -125 59 -289 111 -456
145 -139 28 -159 28 -300 -11 -81 -22 -108 -16 -155 35 -20 22 -52 45 -72 51
-77 25 -276 -18 -379 -83 -29 -18 -92 -58 -140 -89 -154 -98 -180 -109 -253
-109 -126 1 -213 16 -232 40 -35 43 -17 191 29 242 36 40 74 51 208 58 140 8
200 25 279 79 53 37 121 110 173 187 61 90 79 99 193 96 52 -1 161 -7 242 -13
207 -17 258 1 307 113 14 29 33 73 45 98 11 25 50 74 86 111 46 46 70 78 79
110 25 78 64 139 113 179 61 48 104 100 185 224 87 131 106 181 106 277 1 63
-4 86 -30 141 -36 77 -150 195 -223 231 -61 29 -151 29 -200 -1 -58 -35 -114
-51 -263 -72 -77 -11 -168 -28 -201 -37 -87 -23 -221 -20 -334 7 -86 20 -95
25 -121 61 -16 21 -34 58 -41 83 -11 40 -10 53 9 114 33 111 33 111 191 120
74 4 151 7 170 5 19 -1 80 -5 135 -7z m-545 -23 c0 -5 -9 -32 -20 -61 -25 -66
-25 -125 1 -181 21 -48 96 -146 117 -155 28 -12 291 -27 362 -21 184 16 449
69 533 107 55 24 78 29 116 26 93 -9 239 -140 276 -247 19 -57 19 -146 0 -201
-8 -23 -34 -68 -57 -99 -24 -32 -67 -93 -96 -135 -37 -54 -68 -87 -106 -111
-81 -52 -104 -87 -121 -189 -5 -32 -22 -54 -89 -120 -74 -72 -86 -88 -106
-149 -26 -81 -56 -119 -111 -141 -35 -14 -58 -15 -162 -7 -257 21 -314 23
-353 12 -43 -11 -110 -74 -161 -151 -39 -58 -119 -133 -169 -158 -50 -25 -123
-39 -249 -47 -110 -8 -155 -22 -198 -63 -49 -46 -70 -99 -74 -187 -8 -162 57
-209 287 -208 99 0 146 20 302 126 203 138 275 167 417 167 67 0 68 -1 125
-50 67 -59 92 -62 208 -30 93 26 197 26 279 1 35 -11 96 -27 134 -37 157 -38
413 -156 433 -199 27 -59 6 -102 -64 -131 -19 -8 -98 -30 -175 -49 -162 -40
-195 -38 -260 15 -84 67 -166 77 -290 34 -98 -34 -143 -29 -234 25 -130 77
-281 106 -431 82 -42 -7 -168 -42 -280 -77 -114 -36 -239 -69 -283 -74 -136
-17 -266 -70 -388 -156 -71 -50 -120 -107 -155 -179 -38 -75 -41 -97 -43 -255
-2 -169 -10 -198 -101 -350 -90 -151 -111 -240 -79 -346 31 -106 160 -266 248
-308 97 -47 364 -63 517 -31 54 11 129 18 205 18 l120 0 145 -70 c80 -39 211
-102 291 -141 119 -57 153 -79 187 -117 59 -67 85 -142 79 -227 -4 -58 -10
-77 -51 -141 -65 -105 -79 -142 -79 -218 -1 -70 -3 -66 91 -241 46 -87 57
-175 41 -322 -29 -264 -13 -298 197 -422 53 -31 135 -72 182 -91 l86 -35 100
25 c56 14 122 28 148 32 71 9 161 59 213 118 59 64 84 113 97 188 10 59 44
109 74 109 24 0 89 67 119 122 86 160 167 245 260 269 76 21 84 27 118 96 79
159 102 246 118 448 18 229 34 265 288 660 57 88 123 185 147 215 107 137 142
312 68 340 -27 11 -211 -4 -282 -22 -23 -6 -63 -8 -87 -6 -57 7 -173 75 -237
139 -49 49 -195 265 -241 355 -27 54 -72 192 -65 200 3 2 43 -40 90 -93 189
-217 386 -392 522 -462 62 -33 91 -38 128 -20 34 16 53 46 99 160 22 57 59
139 81 181 38 73 55 92 153 171 19 16 35 38 35 48 0 32 -44 67 -106 85 -99 28
-138 54 -194 127 -12 17 -7 17 106 11 147 -8 238 6 333 51 39 19 90 52 114 75
l45 40 72 -177 c201 -495 206 -503 281 -563 90 -71 126 -48 116 75 -3 48 -17
102 -42 166 -81 209 -88 237 -89 349 -1 105 17 185 58 259 l13 24 11 -34 c22
-69 92 -438 108 -569 33 -273 18 -671 -36 -968 -107 -582 -364 -1119 -747
-1564 -95 -110 -316 -326 -423 -411 -372 -299 -942 -568 -1420 -671 -423 -91
-940 -93 -1366 -6 -639 131 -1212 418 -1707 853 -78 69 -105 110 -145 227 -17
47 -38 105 -48 130 -14 35 -19 73 -19 165 0 135 8 171 102 460 83 256 76 282
-111 471 -92 91 -137 128 -186 153 -36 18 -73 40 -83 49 -29 26 -118 148 -182
252 l-59 94 -7 131 c-12 228 -54 303 -230 405 -40 24 -84 55 -97 69 -35 37
-79 134 -87 191 -10 73 49 406 131 735 33 135 47 168 102 248 26 38 63 105 82
150 l35 81 85 52 c102 62 188 151 249 255 24 42 58 85 75 97 17 11 83 37 146
58 l115 37 78 80 c51 51 86 79 100 79 12 0 69 -16 125 -36 57 -20 120 -36 140
-36 76 0 133 63 167 185 10 36 28 72 46 91 64 67 58 138 -19 204 -32 27 -41
40 -29 40 9 0 47 13 83 30 84 38 199 152 304 300 90 128 177 221 249 268 44
28 94 45 265 88 116 29 263 59 326 68 63 9 126 17 140 20 47 7 90 6 90 -1z
m1896 -149 c19 -9 41 -29 49 -45 14 -27 21 -119 9 -119 -3 0 -57 25 -120 55
-63 30 -119 55 -125 55 -12 0 -11 4 2 34 7 14 19 27 28 29 40 11 126 6 157 -9z
m-2856 -69 c0 -9 -251 -334 -299 -387 -58 -65 -105 -94 -188 -116 -67 -17 -68
-18 -71 -53 -3 -31 2 -40 30 -62 61 -49 68 -57 68 -86 0 -21 -10 -40 -35 -63
-28 -27 -37 -46 -50 -107 -19 -90 -43 -127 -96 -142 -36 -11 -49 -9 -162 29
-149 51 -167 52 -204 10 -103 -118 -125 -134 -234 -168 -170 -53 -200 -74
-260 -190 -41 -78 -115 -156 -189 -198 -30 -18 -59 -32 -63 -32 -15 0 101 210
188 340 257 386 591 709 986 953 203 125 579 302 579 272z m-2051 -3113 c36
-27 90 -63 118 -81 130 -81 182 -200 168 -381 l-7 -87 53 -94 c105 -189 217
-315 322 -365 44 -20 80 -50 148 -123 129 -138 163 -190 162 -249 0 -26 -11
-74 -23 -107 -85 -227 -122 -351 -137 -459 -16 -111 -16 -117 6 -231 12 -65
20 -119 18 -121 -13 -13 -227 255 -336 421 -310 471 -509 1035 -560 1585 -12
126 -15 340 -5 340 4 0 36 -22 73 -48z"/>
<path d="M2922 6452 c-91 -35 -125 -56 -42 -27 76 27 118 17 145 -35 17 -33
20 -104 5 -146 -11 -32 -195 -175 -293 -227 -50 -28 -55 -29 -132 -20 -146 15
-255 10 -300 -14 -45 -23 -153 -48 -163 -38 -14 14 172 151 390 287 133 83
234 158 193 143 -169 -60 -220 -87 -370 -190 -133 -92 -318 -242 -332 -269
-12 -22 -10 -25 15 -34 22 -7 61 0 192 36 l164 45 131 -17 c102 -14 139 -16
172 -7 39 11 145 81 304 201 86 66 80 53 94 212 8 88 -18 142 -68 137 -7 -1
-54 -17 -105 -37z"/>
<path d="M3001 5663 c-19 -49 -31 -116 -31 -183 0 -72 -19 -155 -52 -232 -16
-37 -19 -55 -11 -67 13 -21 102 -33 123 -16 8 7 54 32 102 54 115 55 126 77
73 143 -13 15 -26 48 -30 75 -10 66 -36 114 -123 224 -29 36 -37 36 -51 2z
m74 -137 c16 -21 29 -56 35 -91 5 -32 14 -73 21 -92 6 -19 8 -40 6 -47 -5 -12
-145 -96 -161 -96 -14 0 -4 42 24 95 28 53 30 65 30 161 0 59 4 104 9 104 6 0
22 -15 36 -34z"/>
<path d="M2771 5416 c-21 -22 -40 -59 -57 -110 -30 -95 -30 -111 -2 -130 56
-39 105 -8 137 87 11 31 27 67 35 79 9 12 16 30 16 40 0 17 -64 68 -85 68 -6
0 -26 -15 -44 -34z"/>
</g>
</svg>
