<?xml version="1.0" standalone="no"?>
<!DOCTYPE svg PUBLIC "-//W3C//DTD SVG 20010904//EN"
 "http://www.w3.org/TR/2001/REC-SVG-20010904/DTD/svg10.dtd">
<svg version="1.0" xmlns="http://www.w3.org/2000/svg"
 width="1200.000000pt" height="846.000000pt" viewBox="0 0 1200.000000 846.000000"
 preserveAspectRatio="xMidYMid meet">
<metadata>
Created by potrace 1.15, written by Peter Selinger 2001-2017
</metadata>
<g transform="translate(0.000000,846.000000) scale(0.100000,-0.100000)"
fill="#000000" stroke="none">
<path d="M6215 8449 c-89 -13 -175 -44 -320 -114 -416 -202 -595 -573 -599
-1245 l-1 -215 34 -88 c18 -48 55 -121 82 -162 l49 -75 -33 0 c-17 0 -75 7
-127 15 -89 15 -97 18 -126 52 -26 30 -37 36 -75 38 -32 1 -57 10 -89 33 -62
44 -255 110 -547 186 -400 105 -579 146 -639 146 l-57 0 -96 93 c-108 103
-195 155 -341 202 -47 15 -114 41 -150 59 -62 30 -71 31 -185 31 -102 0 -135
-5 -215 -28 -149 -44 -229 -87 -320 -173 -53 -50 -102 -85 -143 -103 -34 -15
-68 -35 -75 -44 -38 -45 -52 -279 -27 -432 8 -49 15 -97 15 -106 0 -18 -120
-77 -265 -129 -121 -44 -157 -71 -276 -206 -69 -78 -117 -123 -148 -139 -60
-30 -110 -84 -155 -167 -42 -76 -3 -56 -401 -204 -258 -96 -292 -112 -339
-154 -58 -52 -148 -194 -237 -375 -86 -175 -138 -321 -168 -466 -22 -106 -57
-429 -71 -654 -9 -155 -19 -209 -105 -555 -56 -229 -72 -370 -49 -456 20 -79
45 -104 102 -104 37 0 50 6 77 33 21 21 36 48 40 73 4 21 27 145 52 274 24
129 71 384 103 566 118 665 238 1149 322 1304 114 209 107 202 382 345 l168
87 -6 -108 c-4 -60 -9 -138 -12 -174 l-5 -65 52 -65 c29 -36 71 -106 94 -156
48 -102 78 -132 162 -164 71 -27 223 -38 304 -21 124 26 233 101 280 193 38
74 42 98 48 305 5 160 9 206 21 217 19 17 221 88 340 119 l90 23 77 -38 c94
-46 274 -112 375 -139 226 -59 405 -23 578 119 142 117 166 141 191 186 17 32
30 46 44 45 11 0 166 -40 345 -88 317 -84 325 -87 324 -111 0 -14 -17 -105
-37 -203 -32 -152 -87 -464 -87 -489 0 -13 -55 19 -95 54 -66 57 -92 127 -101
268 -9 150 -28 179 -212 318 -100 76 -160 105 -199 96 -40 -10 -63 -33 -63
-65 0 -28 6 -35 180 -185 84 -73 108 -110 120 -191 11 -69 26 -122 70 -247 25
-74 40 -98 83 -130 42 -32 132 -56 170 -45 27 8 28 7 22 -24 -3 -18 -41 -223
-84 -457 l-77 -425 -104 -3 c-107 -3 -140 -15 -140 -50 0 -7 -16 -41 -37 -73
-20 -33 -40 -81 -44 -107 -17 -99 -31 -579 -33 -1152 -2 -327 -6 -605 -10
-616 -4 -12 5 -79 20 -150 17 -83 26 -157 25 -208 -1 -56 3 -85 14 -102 21
-33 68 -32 101 1 24 25 25 29 24 153 0 70 4 148 9 174 14 66 31 849 31 1452
l0 508 48 -7 c26 -4 49 -8 50 -10 2 -2 -10 -72 -28 -156 -37 -174 -36 -226 3
-267 23 -25 28 -43 47 -207 25 -216 39 -620 40 -1151 l0 -380 30 -29 c26 -25
33 -27 54 -17 38 17 55 51 71 143 42 234 61 871 35 1195 -11 141 -52 467 -76
608 -14 82 -14 96 2 185 13 68 25 102 40 116 29 28 35 50 23 84 -9 25 0 73 50
283 88 371 125 564 195 1038 l63 425 64 -3 c54 -2 68 1 87 18 32 30 38 67 16
97 -37 49 -382 167 -754 259 -124 31 -229 59 -233 63 -4 4 -1 74 8 155 l15
148 -30 157 c-16 86 -39 187 -50 226 -25 89 -25 95 4 95 42 0 496 -117 711
-183 285 -89 312 -100 377 -154 51 -43 75 -54 245 -110 413 -136 589 -176 793
-177 137 0 149 1 220 29 71 27 83 29 220 28 80 0 207 -6 283 -12 101 -8 203
-9 370 -1 128 5 340 15 473 20 168 8 255 8 287 0 37 -8 128 -6 194 4 3 1 14
-53 24 -119 20 -138 46 -215 93 -276 l33 -43 -104 -78 -104 -78 -74 0 c-48 0
-102 -9 -161 -26 -101 -29 -665 -229 -706 -250 -57 -29 -80 -113 -43 -154 34
-37 71 -41 245 -25 90 8 166 13 168 10 3 -2 20 -175 38 -382 17 -208 44 -495
58 -638 14 -143 35 -381 46 -530 11 -148 27 -346 35 -440 8 -93 17 -215 20
-270 15 -285 37 -587 46 -644 21 -139 90 -205 158 -152 42 32 50 162 31 491
-5 96 -14 321 -20 500 -10 302 -22 522 -35 613 l-5 37 48 0 49 0 6 -132 c4
-73 11 -506 17 -963 5 -456 12 -848 15 -870 15 -105 128 -117 166 -17 28 72
18 1676 -11 1897 -9 66 -18 92 -51 144 -22 35 -38 69 -36 76 10 23 -38 40
-128 45 l-90 5 -17 167 c-9 92 -33 289 -52 438 -20 149 -36 275 -36 280 0 5
17 14 37 21 20 6 58 32 85 56 39 37 54 63 88 148 23 59 47 145 56 202 19 112
23 118 147 231 106 96 113 100 199 123 l73 18 55 -38 c30 -21 66 -44 80 -51
42 -22 202 -60 255 -60 64 0 204 37 376 101 l137 50 40 -20 c22 -11 70 -43
107 -71 103 -78 341 -297 365 -335 11 -19 29 -37 40 -40 31 -10 41 -31 66
-135 28 -120 58 -181 116 -237 49 -48 188 -117 318 -159 47 -15 97 -36 112
-46 34 -24 95 -23 135 2 18 10 67 54 110 97 119 119 173 247 173 414 0 146
-69 336 -156 429 -54 57 -86 76 -188 110 -108 35 -126 30 -348 -103 -106 -63
-208 -122 -227 -132 l-33 -17 -144 151 c-79 82 -173 173 -209 201 l-64 51 35
49 c66 92 224 447 224 504 0 26 13 19 96 -50 120 -102 292 -280 359 -374 145
-203 240 -270 306 -213 15 12 22 10 60 -15 24 -16 165 -91 313 -167 148 -76
284 -151 303 -168 19 -17 52 -64 72 -106 60 -119 141 -306 141 -325 0 -9 25
-108 55 -219 75 -272 103 -415 276 -1407 50 -288 59 -316 106 -361 48 -45 61
-50 100 -34 62 26 68 50 67 240 0 164 -2 175 -37 305 -95 348 -113 452 -122
731 -8 251 -66 580 -132 749 -45 116 -255 500 -302 552 -61 68 -105 94 -235
138 -61 21 -184 67 -274 104 -193 78 -260 99 -308 94 -36 -3 -37 -2 -58 57
-26 71 -147 269 -208 340 -93 108 -317 312 -417 380 -85 58 -101 73 -96 90 16
56 17 184 2 263 -20 106 -42 136 -111 156 -39 12 -65 28 -93 57 -49 53 -145
124 -208 157 -27 14 -126 44 -220 66 l-170 42 -120 -42 c-138 -48 -288 -105
-360 -136 -60 -27 -286 -242 -317 -303 -27 -53 -115 -328 -123 -385 -13 -94
-4 -86 -117 -99 -346 -40 -590 -61 -713 -61 -136 0 -141 1 -190 29 -79 45 -82
52 -47 103 76 112 113 212 141 383 41 256 36 424 -24 750 -46 248 -130 475
-208 562 -69 76 -222 127 -459 152 -110 12 -167 12 -253 0z m300 -279 c135
-20 192 -47 228 -107 10 -18 42 -137 70 -265 l52 -233 0 -280 c0 -261 -2 -286
-23 -370 -31 -117 -109 -281 -161 -338 -51 -55 -113 -83 -217 -96 -43 -5 -101
-15 -127 -21 -59 -13 -230 2 -300 26 -158 54 -395 278 -432 408 -28 97 -43
281 -34 421 22 339 35 426 77 509 64 129 314 310 471 341 80 16 300 18 396 5z
m2661 -945 c126 -24 267 -103 386 -217 35 -33 35 -47 2 -224 -32 -175 -51
-240 -130 -443 -78 -199 -123 -286 -172 -334 -46 -44 -312 -170 -408 -193 -92
-22 -179 -14 -246 23 -63 34 -145 124 -184 200 l-29 58 0 225 c1 220 2 228 32
340 17 63 46 156 63 205 47 129 78 156 315 277 213 108 225 111 371 83z
m-6037 -115 c269 -132 340 -188 381 -298 12 -30 40 -125 63 -211 l42 -156 -1
-207 c-2 -202 -2 -210 -27 -261 -38 -76 -150 -190 -217 -221 -86 -40 -142 -36
-297 23 -148 56 -277 119 -313 152 -39 36 -82 104 -135 209 -70 139 -92 204
-140 410 -24 102 -48 198 -54 213 -15 40 -14 113 4 146 29 56 174 170 269 211
63 27 168 48 242 49 55 1 73 -5 183 -59z m-804 -950 c25 -63 64 -148 86 -188
38 -72 41 -92 14 -92 -26 0 -202 -62 -290 -102 -104 -48 -160 -54 -203 -20
-15 12 -53 36 -84 52 -68 35 -76 56 -59 139 25 112 41 133 139 179 88 42 345
151 349 148 1 -1 23 -53 48 -116z m-704 -416 c25 -25 79 -69 120 -98 47 -33
81 -66 94 -90 15 -28 35 -45 75 -65 80 -39 95 -73 81 -186 -15 -120 -30 -164
-73 -207 -47 -47 -88 -58 -219 -58 -146 0 -165 8 -179 73 -6 29 -22 92 -37
141 -23 80 -25 101 -20 195 8 149 65 341 101 341 6 0 31 -21 57 -46z m8855
-199 c35 -23 80 -88 106 -154 19 -47 22 -76 23 -181 0 -116 -2 -129 -28 -184
-15 -33 -53 -95 -84 -138 l-56 -78 -41 25 c-23 14 -82 50 -133 80 -84 51 -132
96 -161 151 -7 12 -32 78 -56 147 l-44 126 96 55 c54 30 140 82 192 116 102
66 131 71 186 35z m-2720 -257 c-10 -70 -40 -139 -80 -177 l-33 -32 -16 117
c-9 65 -16 119 -14 121 4 3 103 20 131 22 17 1 18 -4 12 -51z"/>
<path d="M10910 4233 c-38 -14 -52 -75 -30 -139 5 -16 23 -166 40 -334 17
-168 39 -375 50 -460 11 -85 33 -287 49 -449 l30 -294 -25 -176 c-28 -192 -26
-246 10 -287 35 -42 61 -26 105 65 21 43 44 107 51 142 7 35 22 75 32 88 14
18 18 41 18 97 0 41 13 142 30 226 36 188 58 355 67 509 l6 118 -31 30 c-32
32 -69 39 -115 22 l-24 -9 -32 226 c-51 356 -71 445 -122 543 -36 69 -48 84
-69 86 -14 1 -32 -1 -40 -4z"/>
<path d="M1016 4125 c-40 -68 -66 -133 -81 -205 -19 -90 -63 -403 -74 -530 -6
-58 -24 -188 -40 -290 -17 -102 -35 -246 -41 -320 -6 -87 -14 -136 -22 -139
-29 -10 -58 -51 -58 -83 0 -18 18 -98 40 -178 53 -190 66 -261 85 -465 8 -94
22 -205 30 -249 8 -43 15 -120 15 -171 0 -109 10 -142 42 -147 28 -4 28 -10
10 -293 -13 -211 -15 -632 -3 -739 7 -64 10 -72 49 -107 26 -25 51 -39 67 -39
32 0 71 40 86 89 7 24 13 202 16 518 4 359 8 487 18 499 11 16 34 14 326 -24
224 -29 368 -43 504 -47 105 -3 323 -10 485 -15 387 -11 1078 -62 1177 -87 22
-5 21 -6 -11 -37 -30 -27 -35 -40 -41 -97 -5 -46 -2 -92 10 -155 25 -128 25
-396 2 -484 -42 -154 -42 -145 -20 -182 17 -29 25 -33 66 -36 69 -5 103 33
145 158 38 118 50 191 65 400 16 244 15 319 -5 359 l-18 33 33 -6 c92 -20 121
-18 157 6 39 26 48 55 30 98 -20 48 -51 67 -170 104 -164 50 -266 73 -420 91
-74 8 -245 31 -380 50 -338 47 -610 73 -894 85 -276 11 -301 13 -606 40 -369
34 -551 56 -565 71 -8 9 -16 85 -24 214 -14 228 -36 440 -52 498 -6 21 -8 45
-5 53 3 8 19 137 36 287 17 149 44 378 60 507 16 129 36 327 45 440 16 209 37
379 55 440 6 19 10 45 10 58 0 33 -43 72 -79 72 -24 0 -34 -8 -55 -45z"/>
<path d="M7735 2064 c-158 -69 -406 -147 -673 -210 -173 -41 -540 -83 -812
-94 -372 -14 -580 -35 -810 -80 -58 -11 -168 -25 -245 -30 -185 -14 -397 -37
-465 -51 -98 -20 -178 -72 -194 -126 -8 -26 24 -106 57 -142 26 -28 92 -60
124 -61 12 0 34 -11 49 -23 l27 -24 -16 -254 c-23 -349 -35 -411 -151 -803
-23 -76 -24 -92 -13 -115 10 -21 19 -26 46 -24 48 2 87 44 137 148 106 223
164 555 164 948 l0 117 123 -6 c201 -10 549 24 1077 106 140 22 332 49 425 60
236 28 309 43 494 100 176 54 204 58 270 32 49 -19 49 -19 76 -150 25 -120 43
-305 55 -557 14 -331 16 -343 50 -377 34 -33 67 -36 104 -7 46 36 49 57 47
314 -3 396 -27 593 -97 803 -19 57 -33 106 -31 108 2 2 75 52 162 112 87 59
167 120 179 135 15 20 21 43 21 84 0 48 -3 58 -25 73 -45 32 -70 31 -155 -6z"/>
<path d="M8149 1697 c-31 -7 -69 -21 -84 -31 -25 -16 -27 -22 -22 -63 7 -68
42 -98 154 -132 50 -16 117 -35 148 -42 l57 -13 -5 -435 c-5 -439 -14 -579
-52 -776 -20 -104 -19 -148 3 -175 17 -21 20 -21 53 -7 50 21 80 96 119 292
43 219 56 490 41 814 -7 157 -8 238 -1 245 7 7 48 3 123 -12 377 -74 803 -99
1402 -82 226 6 433 13 461 17 l50 5 13 -198 c7 -110 16 -262 21 -339 11 -164
20 -203 62 -250 36 -42 50 -43 77 -9 19 25 21 40 21 183 -1 86 -7 262 -14 391
-12 219 -12 236 5 265 21 36 47 281 32 296 -6 6 -106 6 -269 -2 -341 -15
-1528 3 -1704 26 -249 33 -611 49 -691 32z"/>
</g>
</svg>
