<?xml version="1.0" standalone="no"?>
<!DOCTYPE svg PUBLIC "-//W3C//DTD SVG 20010904//EN"
 "http://www.w3.org/TR/2001/REC-SVG-20010904/DTD/svg10.dtd">
<svg version="1.0" xmlns="http://www.w3.org/2000/svg"
 width="956.000000pt" height="713.000000pt" viewBox="0 0 956.000000 713.000000"
 preserveAspectRatio="xMidYMid meet">
<metadata>
Created by potrace 1.15, written by Peter Selinger 2001-2017
</metadata>
<g transform="translate(0.000000,713.000000) scale(0.100000,-0.100000)"
fill="#000000" stroke="none">
<path d="M3179 7119 c-18 -7 -73 -71 -158 -184 -284 -377 -476 -584 -841 -908
-384 -340 -683 -570 -950 -729 -85 -50 -229 -140 -320 -199 -210 -135 -312
-194 -530 -305 -199 -101 -280 -165 -280 -221 0 -17 7 -36 15 -43 16 -13 20
-57 7 -76 -4 -5 -25 -23 -47 -39 -99 -72 -99 -92 7 -315 14 -29 63 -84 137
-155 64 -60 217 -212 341 -336 144 -144 303 -291 440 -406 378 -316 416 -342
490 -343 52 0 89 28 151 116 30 43 102 144 159 224 237 331 267 381 360 599
34 79 72 165 84 190 l23 45 7 -150 c5 -90 3 -220 -5 -329 -18 -277 -15 -1448
5 -1745 9 -129 16 -290 16 -357 0 -126 23 -337 42 -386 14 -37 49 -59 91 -59
53 0 92 26 118 79 24 47 24 53 23 338 -1 219 -5 315 -17 391 -25 150 -37 706
-30 1424 6 599 -11 1751 -26 1807 -4 15 -19 35 -33 46 -25 19 -26 19 -66 -2
-23 -12 -48 -31 -56 -44 -18 -29 -46 -423 -46 -649 l0 -168 -59 -29 c-76 -39
-113 -83 -190 -229 -76 -145 -204 -343 -335 -517 -54 -71 -123 -172 -153 -222
-31 -51 -57 -93 -59 -93 -3 0 -46 33 -97 73 -50 41 -189 146 -307 234 -118 88
-249 192 -290 230 -41 38 -111 98 -155 133 -106 85 -216 191 -276 266 -63 80
-139 203 -139 227 0 10 16 42 35 72 58 86 275 232 709 473 383 213 704 418
886 567 369 301 987 900 1141 1105 47 63 127 198 188 315 22 45 54 96 69 114
l28 34 59 -34 c91 -50 258 -154 371 -229 127 -86 221 -133 409 -205 83 -31
197 -76 255 -100 117 -47 164 -59 325 -81 293 -39 837 -44 965 -9 73 20 448
168 529 210 96 48 119 93 87 169 -17 41 -51 66 -91 66 -49 0 -248 -57 -378
-109 -169 -68 -243 -88 -382 -106 -238 -30 -461 -40 -663 -27 -263 17 -371 45
-485 129 -56 41 -104 48 -135 20 -10 -9 -27 -17 -38 -17 -21 0 -277 146 -482
274 -171 107 -238 142 -324 170 -83 28 -90 29 -129 15z"/>
<path d="M6263 6525 c-26 -18 -30 -57 -10 -92 17 -30 243 -278 354 -389 87
-86 245 -226 563 -494 74 -63 194 -166 265 -230 72 -64 229 -200 350 -302 121
-102 339 -290 485 -418 343 -300 484 -414 652 -523 76 -49 140 -98 143 -108 7
-21 -55 -108 -127 -175 -90 -86 -540 -412 -675 -489 -82 -48 -155 -76 -326
-125 -78 -22 -175 -53 -216 -67 l-74 -26 -21 25 c-12 13 -102 174 -201 357
-99 183 -192 346 -207 362 -42 46 -108 36 -108 -17 0 -28 94 -252 189 -449
123 -253 230 -413 304 -452 26 -13 53 -14 171 -9 405 20 501 44 762 191 219
124 362 226 539 387 172 156 201 188 360 388 111 140 114 146 115 195 0 86
-70 151 -182 167 -59 8 -98 23 -198 75 -69 35 -161 88 -205 118 -73 48 -340
261 -505 401 -36 30 -159 121 -275 201 -357 248 -395 276 -575 423 -96 79
-256 204 -355 278 -398 299 -572 448 -713 609 -162 186 -224 228 -279 188z"/>
<path d="M5751 5095 c-148 -47 -189 -238 -74 -347 85 -81 211 -74 290 15 134
152 -23 393 -216 332z m126 -36 c38 -14 83 -57 99 -96 49 -113 -38 -243 -161
-243 -94 0 -175 80 -175 174 0 121 124 208 237 165z"/>
<path d="M4670 4723 c-14 -2 -50 -11 -80 -20 -30 -8 -85 -16 -121 -17 -63 -2
-71 -5 -168 -67 -157 -99 -221 -150 -278 -220 -71 -87 -135 -203 -140 -253 -7
-58 22 -89 138 -151 52 -27 137 -77 189 -111 134 -86 175 -106 217 -102 36 3
36 4 58 79 13 47 57 139 115 245 92 166 116 204 130 204 4 0 50 -65 103 -144
l96 -145 -79 -66 c-44 -37 -87 -76 -95 -88 -18 -26 -19 -61 -2 -74 11 -9 464
-44 567 -43 91 0 94 5 224 332 64 161 116 307 116 325 0 36 -25 67 -47 59 -8
-3 -20 -6 -27 -6 -7 0 -41 -18 -75 -40 -34 -22 -63 -40 -66 -40 -2 0 -27 39
-56 88 -81 134 -147 230 -167 240 -18 10 -509 23 -552 15z m534 -198 c18 -27
58 -95 90 -150 31 -55 65 -106 74 -112 8 -7 33 -13 54 -13 21 0 38 -3 38 -6 0
-21 -114 -351 -125 -363 -11 -11 -50 -12 -214 -6 -111 4 -201 11 -201 15 0 4
24 23 54 43 30 20 57 46 61 57 8 26 -10 56 -152 250 -57 77 -103 142 -103 145
0 2 77 57 172 120 l172 115 24 -23 c13 -12 39 -44 56 -72z m-344 71 c0 -2 -29
-23 -66 -46 -109 -72 -155 -140 -299 -446 -43 -93 -80 -170 -81 -172 0 -1 -68
30 -150 69 -82 39 -177 84 -212 100 l-63 29 40 57 c88 129 276 276 425 334
107 41 266 77 344 78 34 1 62 -1 62 -3z"/>
<path d="M3830 3839 c-168 -9 -315 -19 -328 -23 -12 -4 -27 -16 -32 -27 -18
-32 9 -70 81 -118 l66 -44 -93 -142 c-97 -148 -114 -181 -114 -218 0 -12 27
-77 59 -144 33 -67 64 -146 70 -175 15 -68 54 -135 130 -223 34 -38 67 -87 73
-108 15 -48 53 -81 210 -180 172 -107 264 -136 450 -140 138 -3 155 27 169
303 5 102 15 211 23 243 16 63 7 124 -20 134 -8 3 -42 0 -77 -7 -51 -10 -101
-9 -278 4 -120 9 -224 16 -233 16 -15 0 -15 3 -1 36 8 20 46 83 84 140 38 57
72 112 76 123 5 17 12 15 89 -24 167 -86 246 -63 187 53 -10 20 -56 136 -101
257 -45 121 -92 230 -104 243 -12 12 -35 26 -51 30 -17 4 -167 0 -335 -9z
m327 -166 c12 -34 45 -114 72 -178 47 -106 59 -145 46 -145 -2 0 -26 14 -52
30 -54 35 -95 38 -120 11 -10 -11 -61 -99 -113 -195 -52 -97 -99 -176 -105
-176 -5 0 -82 45 -170 99 -115 70 -163 106 -169 124 -8 22 3 44 96 184 58 87
108 167 112 178 3 12 -2 36 -14 57 l-19 37 52 6 c29 3 104 12 167 19 63 8 133
13 155 13 40 -2 40 -3 62 -64z m-312 -768 c61 -21 287 -37 480 -33 119 2 139
0 135 -12 -3 -8 -5 -112 -5 -230 -1 -209 -1 -215 -21 -218 -27 -4 -313 101
-389 143 -83 46 -144 102 -222 204 -37 47 -83 104 -104 126 -35 37 -69 99 -69
125 0 6 33 -12 73 -39 40 -27 95 -56 122 -66z"/>
<path d="M5606 3754 c-27 -14 -62 -34 -78 -45 -16 -12 -102 -56 -192 -100
-152 -72 -206 -110 -206 -142 0 -6 24 -35 53 -66 29 -31 73 -92 97 -136 24
-44 74 -133 111 -197 l68 -118 -183 0 -183 0 -7 64 c-8 85 -31 159 -56 181
-35 32 -61 7 -173 -162 -57 -87 -126 -187 -154 -223 -102 -134 -102 -139 25
-306 53 -71 139 -186 190 -257 97 -131 113 -147 156 -147 37 0 48 30 48 125
l0 83 192 4 c159 2 196 6 218 20 14 9 59 74 101 145 41 70 90 142 107 158 42
40 61 78 110 225 23 68 49 139 59 159 10 20 21 50 25 66 10 47 -12 293 -34
381 -24 97 -89 231 -134 279 -41 44 -88 46 -160 9z m98 -131 c60 -159 87 -351
68 -494 -13 -99 -112 -403 -140 -432 -19 -19 -19 -17 -24 95 -4 84 -10 125
-26 159 -21 49 -137 237 -234 382 -33 49 -57 92 -53 95 15 15 371 241 380 241
6 1 19 -20 29 -46z m-687 -764 l21 -22 226 20 225 19 3 -209 3 -209 -23 -9
c-13 -5 -110 -9 -217 -9 -213 0 -199 4 -240 -65 -9 -16 -28 2 -129 126 -66 79
-123 150 -129 157 -7 9 23 61 109 190 l119 177 5 -72 c4 -57 10 -77 27 -94z"/>
<path d="M7086 3548 c-29 -46 -28 -108 8 -403 55 -448 70 -683 87 -1365 9
-385 16 -478 45 -659 19 -116 31 -136 90 -147 76 -14 94 29 101 241 6 188 -20
792 -47 1047 -10 106 -29 292 -40 413 -25 258 -63 529 -111 773 -19 96 -97
155 -133 100z"/>
<path d="M7270 824 c-63 -30 -196 -81 -295 -113 -170 -56 -244 -76 -699 -186
-178 -43 -856 -160 -1066 -184 -252 -29 -1006 -42 -1260 -21 -412 33 -567 53
-1053 131 -316 50 -417 69 -522 96 -104 26 -175 1 -175 -62 0 -87 120 -147
465 -234 327 -82 712 -152 1100 -201 401 -52 422 -53 735 -47 499 10 900 53
1230 131 102 24 223 52 270 61 165 33 715 207 940 297 224 90 440 200 500 255
44 40 53 55 53 82 0 71 -68 69 -223 -5z"/>
</g>
</svg>
