<?xml version="1.0" standalone="no"?>
<!DOCTYPE svg PUBLIC "-//W3C//DTD SVG 20010904//EN"
 "http://www.w3.org/TR/2001/REC-SVG-20010904/DTD/svg10.dtd">
<svg version="1.0" xmlns="http://www.w3.org/2000/svg"
 width="1913.000000pt" height="991.000000pt" viewBox="0 0 1913.000000 991.000000"
 preserveAspectRatio="xMidYMid meet">
<metadata>
Created by potrace 1.15, written by Peter Selinger 2001-2017
</metadata>
<g transform="translate(0.000000,991.000000) scale(0.100000,-0.100000)"
fill="#000000" stroke="none">
<path d="M12957 9900 c-27 -5 -62 -13 -79 -19 -17 -6 -55 -11 -85 -11 -53 0
-56 -2 -114 -60 -58 -58 -123 -90 -180 -90 -21 0 -75 -44 -91 -73 -21 -39 -27
-91 -17 -130 5 -21 39 -82 74 -136 174 -266 209 -373 225 -686 5 -104 17 -237
26 -294 13 -86 15 -148 11 -340 -4 -144 -12 -269 -22 -321 -21 -114 -30 -432
-16 -540 6 -47 24 -177 41 -290 17 -112 29 -210 28 -217 -2 -7 -32 52 -67 130
-36 78 -115 244 -177 368 -153 304 -150 291 -118 548 15 122 41 273 64 371 22
91 46 208 55 260 8 52 20 122 25 155 8 51 7 65 -10 100 -30 62 -61 85 -132
101 -113 24 -244 13 -368 -31 -78 -28 -92 -48 -164 -248 -45 -123 -46 -128
-46 -244 0 -131 12 -272 70 -823 21 -206 44 -447 50 -535 13 -199 23 -274 67
-550 21 -137 41 -232 53 -251 41 -71 325 -455 347 -469 l23 -16 -92 -122 c-51
-67 -127 -156 -168 -197 -95 -94 -378 -297 -428 -306 -41 -8 -75 7 -104 47
-21 27 -98 269 -98 305 0 12 30 93 66 180 135 323 171 476 160 680 -12 251
-91 502 -216 692 -52 77 -175 209 -250 267 -65 50 -153 97 -235 125 -141 49
-395 52 -517 8 -216 -80 -418 -285 -519 -527 -116 -278 -125 -645 -24 -947 30
-90 113 -257 168 -339 56 -83 191 -213 266 -255 91 -51 111 -68 111 -96 0 -23
-2 -24 -77 -24 -43 0 -95 5 -115 10 -50 14 -383 188 -460 241 -99 67 -162 124
-296 269 -101 109 -132 150 -163 215 -50 103 -167 407 -175 454 -9 48 -9 47
-140 258 -164 261 -202 341 -174 358 5 3 85 -62 177 -146 93 -83 209 -184 260
-225 51 -41 99 -84 108 -96 19 -28 19 -78 1 -160 -8 -35 -20 -112 -26 -173
-14 -134 -7 -165 40 -165 25 0 33 6 45 33 17 39 106 530 134 747 12 85 30 187
41 225 11 39 39 165 61 280 57 293 265 1192 291 1259 7 17 37 62 68 100 70 88
120 173 170 290 127 298 145 656 37 743 -12 10 -43 45 -69 79 -62 80 -110 122
-152 129 -42 8 -171 -17 -294 -57 -111 -37 -168 -82 -202 -160 -20 -47 -22
-63 -17 -158 3 -58 17 -206 31 -330 14 -124 26 -235 26 -247 0 -12 -14 -38
-31 -58 -21 -23 -45 -75 -69 -143 -93 -268 -157 -438 -230 -611 -260 -623
-314 -748 -366 -856 l-58 -120 -7 135 c-5 74 -9 306 -11 515 -4 449 -9 426
114 490 120 63 191 149 225 270 8 28 17 109 20 180 7 152 3 164 -76 239 -91
84 -139 99 -461 141 -185 24 -221 21 -241 -17 -15 -28 12 -65 58 -77 38 -11
243 -57 385 -86 135 -28 178 -76 186 -206 4 -61 0 -93 -18 -150 -19 -64 -29
-81 -84 -134 -38 -36 -94 -77 -144 -103 -45 -24 -88 -53 -95 -65 -9 -17 -12
-157 -12 -602 0 -640 1 -650 66 -809 16 -39 38 -107 49 -152 27 -113 325 -714
454 -916 l94 -147 -45 -35 c-24 -19 -75 -70 -112 -113 -105 -120 -316 -293
-359 -293 -30 0 -60 50 -157 265 -46 99 -96 208 -114 242 -17 35 -31 69 -31
77 0 8 -10 31 -23 49 -25 37 -85 229 -117 375 -20 90 -30 193 -55 597 -27 426
-30 632 -11 697 26 91 16 414 -20 606 -7 42 -19 172 -25 287 -7 138 -18 237
-30 288 -21 86 -20 91 40 174 21 30 42 46 71 54 22 7 47 20 56 31 16 17 16 19
-1 38 -41 45 -128 17 -203 -65 -88 -97 -112 -183 -73 -271 20 -43 23 -77 31
-289 6 -132 14 -301 19 -375 10 -130 0 -691 -15 -965 -8 -130 9 -474 32 -675
30 -251 83 -450 168 -619 25 -50 46 -99 46 -109 0 -23 -95 -181 -138 -229 -28
-32 -35 -35 -64 -27 -58 14 -108 6 -333 -55 -151 -40 -222 -55 -227 -47 -3 6
-8 41 -9 77 l-4 66 74 79 c124 133 203 269 266 457 94 281 65 627 -75 907
-127 254 -316 380 -570 380 -165 0 -321 -58 -467 -175 -147 -118 -236 -229
-303 -382 -34 -75 -38 -81 -44 -58 -5 19 0 39 17 68 14 23 45 78 71 122 26 44
53 102 61 129 21 69 36 202 38 331 1 98 -1 116 -23 162 -32 67 -239 306 -284
327 -19 9 -59 16 -93 16 -83 0 -147 -32 -200 -101 -44 -57 -93 -152 -93 -181
0 -9 -28 -92 -62 -185 l-61 -168 -7 -145 c-3 -80 -11 -155 -18 -167 -6 -12
-23 -57 -37 -101 -26 -83 -74 -197 -79 -191 -2 2 -32 54 -66 114 -35 61 -99
164 -143 230 -106 157 -129 211 -230 525 -128 396 -155 491 -187 650 -31 158
-115 404 -202 595 -77 168 -97 234 -109 354 -13 127 -4 221 38 398 19 81 28
144 28 203 0 75 -4 91 -30 138 -75 137 -197 177 -463 154 -137 -12 -190 -35
-280 -120 l-62 -57 0 -102 c0 -134 14 -269 51 -488 45 -269 48 -279 134 -485
88 -211 114 -313 115 -453 0 -32 11 -138 25 -235 14 -97 32 -244 40 -327 26
-252 109 -623 208 -930 50 -158 61 -177 118 -216 21 -15 22 -22 30 -230 10
-301 29 -388 140 -638 33 -74 58 -138 57 -142 -3 -6 -44 -42 -149 -126 -57
-47 -90 -44 -303 26 -215 71 -308 91 -416 91 -71 0 -80 2 -80 18 0 27 -32 52
-67 52 -16 0 -67 -11 -114 -25 -123 -37 -129 -38 -72 -11 148 70 318 215 404
345 85 130 159 350 174 516 10 109 -11 407 -35 505 -59 241 -191 473 -340 597
-81 68 -282 169 -365 184 -78 15 -301 5 -380 -16 -173 -46 -361 -179 -487
-345 -69 -90 -172 -305 -197 -410 -46 -191 -51 -401 -15 -575 20 -97 112 -346
161 -434 39 -70 145 -187 228 -251 55 -43 85 -94 60 -104 -38 -14 -284 69
-469 159 -236 115 -315 119 -606 35 -96 -28 -224 -58 -285 -67 -88 -12 -119
-21 -154 -44 -25 -16 -47 -29 -51 -29 -20 0 -95 67 -121 108 -65 103 -66 90
43 617 53 260 78 358 103 415 48 107 51 137 25 199 -33 77 -25 107 72 267 84
138 85 139 154 176 223 121 316 411 209 653 -63 144 -191 197 -345 145 -102
-34 -173 -73 -219 -118 -68 -69 -254 -468 -367 -789 l-18 -52 -37 40 c-41 44
-72 50 -93 17 -8 -13 -49 -99 -91 -193 -98 -219 -310 -632 -412 -805 -127
-215 -191 -331 -219 -399 -31 -79 -140 -508 -154 -611 -6 -41 -11 -147 -13
-235 -2 -159 -2 -160 27 -220 43 -87 173 -213 321 -311 66 -43 235 -137 375
-209 173 -87 282 -150 338 -193 46 -35 181 -128 300 -206 119 -79 229 -156
244 -172 73 -79 129 -206 159 -357 17 -88 28 -199 74 -787 18 -225 34 -780 37
-1260 3 -369 -16 -768 -36 -794 -9 -12 -24 -12 -101 0 -183 28 -255 15 -255
-47 0 -72 123 -139 330 -180 245 -49 543 -20 1035 101 110 27 298 70 419 95
211 44 224 45 395 45 339 0 666 -41 844 -105 58 -21 116 -35 143 -35 42 0 51
5 109 61 97 93 170 246 216 454 27 120 37 405 19 553 -14 118 -208 906 -284
1156 -68 218 -86 321 -86 473 0 159 10 200 94 388 59 131 158 391 211 553 14
44 22 55 53 68 20 8 45 22 55 32 30 26 144 165 230 280 43 56 81 102 85 102
10 0 48 -63 155 -260 152 -278 171 -331 207 -575 12 -77 37 -203 55 -281 83
-338 104 -541 112 -1079 6 -471 2 -552 -52 -870 -53 -308 -66 -423 -73 -645
-7 -192 -8 -207 -29 -234 -13 -16 -23 -39 -23 -52 0 -13 10 -30 23 -38 37 -24
183 -65 337 -96 80 -16 258 -54 395 -84 297 -65 417 -87 676 -120 175 -23 219
-25 454 -22 l260 4 115 40 c532 183 722 261 840 341 54 37 61 39 112 34 50 -5
56 -3 75 21 19 23 21 45 27 223 4 109 11 290 17 403 11 229 -3 598 -43 1095
-35 437 -28 1040 18 1430 27 234 65 438 100 543 39 118 45 214 18 328 -9 40
-14 99 -12 149 l3 82 37 -28 c20 -16 78 -68 130 -115 95 -88 212 -171 398
-284 58 -35 110 -68 117 -74 9 -8 4 -44 -23 -151 -35 -142 -58 -323 -69 -540
-8 -158 -32 -421 -51 -565 -20 -153 -48 -267 -137 -560 -85 -279 -116 -407
-153 -635 -21 -132 -92 -535 -160 -905 -17 -96 -18 -257 -1 -290 12 -25 15
-25 167 -32 85 -4 286 -15 445 -23 583 -31 996 -47 1995 -75 l355 -10 23 -25
c12 -14 27 -25 32 -25 4 0 15 -3 23 -6 10 -3 22 4 33 21 15 23 17 62 15 418
-2 328 2 430 19 627 13 147 24 384 30 635 5 220 14 432 20 470 43 279 85 502
109 572 40 115 99 210 195 311 97 103 136 159 181 256 51 109 74 205 90 367
17 172 41 289 95 454 21 66 64 210 95 320 50 176 75 245 75 208 0 -22 84 -73
164 -99 267 -88 323 -163 452 -614 131 -456 126 -437 126 -535 0 -49 4 -412 9
-805 7 -599 6 -738 -6 -850 -20 -192 -31 -242 -80 -360 -90 -219 -127 -367
-155 -620 -19 -169 -61 -398 -110 -602 -29 -122 -27 -147 15 -188 36 -35 36
-35 33 -115 l-3 -80 -75 -25 c-42 -14 -81 -29 -88 -33 -22 -15 -14 -65 12 -82
23 -15 41 -14 253 15 320 44 381 55 613 112 273 67 379 71 795 34 742 -66 879
-69 1039 -21 110 32 257 107 291 147 17 20 25 42 25 68 0 65 -95 726 -125 871
-9 41 -40 166 -69 279 -30 113 -65 252 -80 310 -14 58 -42 159 -63 225 l-37
120 1 194 c2 107 7 246 13 310 14 164 84 593 121 741 61 245 345 1068 367
1063 38 -9 676 -25 1007 -26 l400 -2 165 33 c91 18 204 42 252 52 91 20 247
86 453 193 111 57 122 66 142 107 54 110 71 293 39 405 -20 68 -122 272 -257
515 -151 271 -222 421 -334 705 -59 148 -125 302 -147 342 -21 39 -48 107 -58
150 -28 117 -85 275 -146 400 l-54 112 -165 153 c-206 191 -239 211 -354 216
-47 2 -105 -1 -128 -7 -58 -16 -109 -77 -180 -217 -57 -113 -58 -117 -58 -197
0 -127 10 -141 388 -577 211 -243 251 -299 342 -480 134 -267 199 -462 225
-670 23 -193 11 -237 -86 -306 -84 -60 -119 -69 -192 -50 -31 9 -124 27 -207
41 -117 20 -195 41 -355 96 -551 191 -692 228 -890 236 -97 4 -165 1 -243 -11
-152 -23 -199 -21 -444 20 -260 43 -342 43 -437 0 -53 -24 -240 -76 -275 -76
-8 0 16 27 52 60 104 96 200 253 240 394 17 60 21 110 25 320 6 360 -14 490
-106 703 -54 123 -116 216 -201 301 -147 145 -288 212 -451 212 -236 0 -455
-151 -580 -400 -64 -128 -119 -323 -135 -482 -12 -118 40 -471 89 -602 78
-206 218 -395 365 -493 l56 -38 -90 -17 c-113 -22 -153 -22 -278 -2 -137 22
-158 30 -362 151 -99 59 -181 108 -183 108 -1 1 38 86 88 190 161 334 158 308
90 931 -34 312 -45 377 -105 609 -24 94 -56 242 -70 330 -32 190 -53 272 -140
550 -36 116 -72 235 -80 265 -12 47 -53 304 -72 448 -5 38 1 56 46 145 75 149
86 240 41 358 -26 70 -106 187 -142 209 -35 21 -101 25 -191 10z m131 -133 c6
-6 14 -26 18 -42 9 -41 42 -75 72 -75 24 0 24 0 20 -92 -4 -118 -33 -183 -118
-273 -50 -52 -61 -68 -58 -92 2 -23 10 -30 39 -37 l36 -9 7 -150 c11 -255 34
-406 97 -637 22 -80 56 -230 75 -334 19 -105 60 -289 89 -410 85 -346 175
-927 175 -1123 0 -143 -14 -180 -215 -575 -102 -203 -191 -368 -197 -368 -5 0
-51 26 -101 57 -51 32 -158 91 -238 133 l-147 75 93 210 c95 217 126 301 144
393 17 82 13 263 -9 417 -54 390 -63 641 -30 865 11 74 23 221 26 325 6 165 4
209 -15 330 -11 77 -30 239 -41 360 -12 121 -28 249 -36 284 -27 121 -80 233
-174 376 -68 104 -102 164 -96 174 6 9 211 124 305 171 43 22 189 57 242 59
15 1 31 -5 37 -12z m-8339 -117 c21 -10 52 -31 70 -45 40 -34 40 -45 -1 -311
-26 -174 -31 -240 -32 -394 l-1 -185 38 -90 c151 -356 241 -611 277 -785 51
-249 174 -620 266 -803 37 -71 33 -107 -22 -222 -76 -159 -184 -252 -333 -287
-59 -13 -70 -7 -90 49 -26 72 -71 141 -96 147 -18 5 -27 18 -39 59 -81 281
-107 406 -221 1052 -65 367 -110 589 -156 757 -5 21 -17 39 -28 43 -22 7 -41
46 -41 87 0 16 -11 97 -25 178 -23 133 -95 614 -95 630 0 13 55 62 98 87 67
39 127 51 265 52 108 1 134 -2 166 -19z m5457 -63 c110 -77 125 -103 132 -231
6 -114 -15 -202 -101 -436 l-60 -165 -73 -74 c-40 -40 -77 -70 -82 -67 -5 3
-19 -34 -32 -82 -15 -55 -50 -140 -97 -230 -40 -79 -73 -153 -73 -163 0 -11
11 -24 25 -31 16 -7 24 -17 20 -27 -10 -33 -155 -642 -184 -771 -45 -204 -97
-489 -118 -642 -9 -76 -21 -138 -26 -138 -22 0 -114 76 -237 194 -74 72 -165
156 -202 185 -40 32 -68 62 -68 73 0 10 23 59 51 108 63 112 126 247 239 510
49 113 134 305 189 427 186 412 253 602 273 773 9 85 8 119 -16 310 -48 382
-48 387 23 455 26 24 51 33 159 56 70 15 136 28 148 28 11 1 60 -27 110 -62z
m2212 -962 c6 -6 -6 -64 -29 -148 -75 -270 -121 -556 -134 -832 -9 -176 -4
-190 150 -490 62 -121 165 -329 230 -462 l117 -241 -25 -89 c-14 -48 -66 -185
-115 -303 -49 -118 -102 -255 -118 -303 -15 -48 -31 -87 -35 -87 -12 0 -39 67
-39 98 0 22 -26 61 -111 167 -118 147 -148 198 -149 255 0 19 -16 116 -35 215
-65 332 -105 662 -105 867 0 48 -16 213 -36 366 -62 488 -64 508 -53 569 18
98 99 337 123 361 12 12 53 34 91 48 60 21 84 24 167 22 53 -2 101 -7 106 -13z
m-10583 -689 c13 -8 38 -45 56 -82 63 -127 50 -298 -31 -423 -41 -63 -78 -95
-155 -134 -27 -14 -60 -36 -71 -49 -54 -58 -178 -302 -219 -428 -9 -30 -20
-58 -24 -62 -13 -15 -134 67 -218 147 l-85 80 46 108 c26 59 60 147 77 195 17
48 66 159 109 247 43 88 90 185 104 217 33 70 90 129 155 163 88 44 206 54
256 21z m15813 -230 c121 -61 251 -183 342 -317 46 -69 81 -146 178 -390 67
-167 150 -385 187 -484 160 -439 212 -553 443 -981 161 -299 189 -371 178
-453 -16 -121 -95 -208 -268 -296 -219 -111 -348 -135 -729 -135 -259 0 -279
1 -279 18 0 9 -9 123 -20 252 -11 129 -20 254 -20 277 l0 42 38 -5 c119 -16
170 -28 213 -50 27 -13 64 -24 82 -24 88 0 254 126 308 233 l30 59 -15 72 c-9
39 -21 118 -26 176 -13 127 -41 251 -87 385 -42 122 -214 476 -274 565 -24 36
-152 192 -284 348 -132 155 -251 303 -264 329 -19 35 -25 62 -25 107 1 53 7
74 51 161 34 67 61 106 80 117 40 25 105 22 161 -6z m-11190 -120 c33 -18 208
-211 238 -262 18 -31 28 -66 34 -126 8 -74 5 -98 -21 -218 -56 -256 -62 -271
-145 -350 -84 -80 -114 -90 -189 -65 -55 19 -176 82 -242 127 -66 44 -78 75
-77 193 1 87 6 113 37 205 20 58 46 148 57 200 12 52 33 121 47 153 53 117
181 188 261 143z m8254 -157 c123 -26 241 -120 345 -276 74 -112 117 -225 155
-406 28 -131 32 -170 30 -284 -2 -152 -19 -248 -58 -324 -72 -143 -215 -272
-353 -319 -201 -67 -410 36 -547 269 -58 99 -109 230 -130 331 -13 68 -16 121
-11 284 4 180 7 210 31 289 71 237 205 389 381 433 65 16 92 16 157 3z
m-11019 -85 c220 -57 388 -205 511 -451 61 -123 88 -230 93 -379 5 -129 5
-131 -26 -201 -17 -39 -31 -81 -31 -93 0 -36 -59 -201 -97 -270 -103 -190
-261 -332 -428 -386 -105 -34 -247 -36 -345 -5 -408 129 -639 687 -494 1190
90 311 284 528 534 597 65 18 211 17 283 -2z m7261 -254 c142 -36 284 -126
385 -243 213 -249 309 -554 280 -890 -12 -148 -40 -252 -96 -366 -68 -138
-125 -191 -278 -260 -197 -88 -218 -94 -330 -95 -127 -1 -198 22 -323 104
-208 137 -338 324 -400 575 -54 217 -65 287 -58 378 13 191 64 363 148 504 45
77 170 202 242 242 32 19 84 42 115 52 78 25 216 25 315 -1z m-3362 -146 c148
-48 295 -211 351 -389 42 -133 24 -416 -39 -616 -71 -226 -223 -434 -396 -542
-89 -55 -233 -84 -332 -66 -151 27 -259 116 -341 282 -65 133 -87 225 -88 377
-1 296 103 566 306 788 149 162 356 226 539 166z m-6580 -79 c58 -86 69 -96
257 -203 61 -35 111 -67 111 -70 0 -4 -24 -20 -54 -35 l-53 -28 28 -29 c19
-18 29 -39 29 -58 0 -32 -31 -158 -85 -344 -59 -202 -70 -270 -70 -428 0 -131
2 -150 24 -198 68 -151 276 -239 387 -164 35 24 59 30 146 40 75 8 149 26 263
63 129 41 177 52 250 56 99 5 90 8 331 -90 278 -112 552 -189 809 -226 194
-29 224 -28 269 8 36 29 38 29 212 36 196 8 367 1 524 -21 98 -15 148 -30 305
-98 108 -46 216 -31 310 44 28 22 72 52 99 67 78 45 143 99 191 161 109 138
514 745 572 857 63 122 119 259 143 350 7 28 14 52 16 53 1 2 29 -14 61 -36
126 -85 232 -124 344 -124 38 -1 69 -4 69 -7 0 -31 -60 -216 -108 -332 -158
-380 -213 -495 -316 -652 -40 -62 -90 -139 -111 -172 -48 -74 -205 -237 -310
-321 -44 -35 -127 -113 -183 -174 -98 -105 -144 -139 -202 -153 -40 -10 -71
-50 -187 -242 -82 -136 -117 -185 -143 -200 -89 -53 -97 -67 -266 -491 -87
-220 -166 -433 -176 -474 -11 -43 -21 -132 -25 -210 -7 -168 -5 -180 137 -760
105 -429 203 -859 234 -1025 24 -132 28 -205 17 -295 -13 -101 -102 -434 -135
-505 -44 -94 -34 -93 -176 -32 -212 92 -419 139 -756 173 -222 22 -328 13
-664 -60 -140 -30 -309 -64 -374 -76 -152 -26 -700 -82 -722 -73 -19 7 -19 7
15 253 11 80 25 217 32 305 16 205 16 768 0 995 -62 917 -121 1355 -206 1525
-41 82 -174 245 -271 331 -152 134 -558 431 -659 481 -87 44 -308 170 -482
275 -182 110 -243 174 -259 276 -8 51 25 253 81 492 24 102 51 228 59 280 20
127 24 135 174 435 132 262 374 786 408 883 10 29 22 51 26 50 4 -2 31 -39 60
-83z m4608 -307 c80 -139 147 -256 149 -261 5 -12 -131 -213 -229 -337 -45
-58 -143 -186 -217 -285 -75 -99 -149 -195 -166 -212 l-31 -33 -23 58 c-31 74
-66 205 -99 367 -22 108 -27 161 -29 312 -2 125 1 187 9 197 6 8 49 31 96 51
205 87 269 143 341 299 24 53 46 96 49 96 3 0 70 -114 150 -252z m896 -600 c0
-245 98 -500 250 -655 51 -53 59 -65 46 -72 -11 -6 -25 -55 -47 -163 l-30
-153 -35 -3 c-45 -5 -86 18 -128 71 -102 127 -266 316 -279 321 -26 10 -53
-12 -53 -45 0 -43 12 -61 109 -173 243 -280 264 -295 441 -307 63 -4 181 -8
261 -8 168 -1 202 7 470 104 135 50 160 56 202 50 53 -6 77 5 77 36 0 14 28
27 142 64 140 46 144 47 238 41 l95 -7 130 106 c72 58 146 119 166 135 l36 29
21 -37 c11 -21 26 -67 31 -102 10 -60 15 -68 71 -125 57 -57 60 -63 50 -89
-16 -44 -12 -94 10 -116 24 -24 55 -25 104 -5 l37 16 79 -68 c79 -67 79 -68
61 -88 -17 -17 -20 -42 -24 -195 -4 -170 -5 -180 -55 -377 -59 -235 -115 -509
-136 -674 -43 -325 -45 -1043 -6 -1624 11 -165 22 -392 26 -505 7 -248 -8
-707 -25 -738 -6 -12 -24 -25 -38 -29 -15 -3 -64 -30 -109 -59 -101 -65 -178
-104 -274 -138 -113 -41 -495 -155 -572 -171 -87 -19 -460 -39 -563 -31 -137
11 -453 54 -599 81 -264 49 -769 164 -778 177 -4 7 -6 33 -3 58 3 25 10 126
15 225 6 99 22 257 36 350 14 94 36 242 49 330 34 230 49 494 41 725 -18 516
-39 727 -97 970 -16 69 -52 226 -80 350 -87 392 -104 451 -169 581 -60 118
-159 276 -224 356 l-65 80 51 59 c109 126 219 230 354 340 78 62 167 141 199
176 31 35 102 138 157 231 87 145 111 195 178 375 42 114 95 260 116 325 21
64 39 117 39 117 0 0 0 -55 1 -122z m7025 -269 c107 -80 130 -93 179 -103 19
-3 73 -23 118 -42 69 -30 98 -37 165 -39 45 -2 104 -10 131 -19 68 -22 151
-20 222 5 46 16 75 19 129 16 53 -4 74 -1 87 10 13 12 62 15 250 18 335 6 442
17 515 53 76 38 95 42 247 46 138 4 179 -3 306 -49 69 -25 83 -27 178 -22 62
4 153 0 230 -8 70 -8 161 -15 202 -15 103 -1 202 -16 285 -45 39 -13 104 -27
145 -31 41 -3 125 -22 185 -41 79 -25 133 -36 193 -38 95 -4 125 -18 141 -67
29 -91 73 -381 78 -514 l5 -141 -36 -7 c-20 -4 -45 -5 -54 -2 -9 2 -123 7
-252 11 -259 7 -330 14 -469 51 -52 14 -104 23 -116 20 -27 -7 -20 7 -97 -216
-33 -96 -98 -274 -145 -395 -174 -451 -216 -590 -288 -950 -84 -418 -100 -549
-98 -811 1 -190 4 -237 17 -262 9 -17 31 -95 50 -174 19 -79 55 -215 80 -303
24 -88 67 -251 95 -363 28 -111 62 -235 76 -275 30 -91 74 -535 56 -574 -26
-56 -168 -116 -315 -132 -166 -19 -860 15 -1122 54 -247 38 -427 48 -613 36
-237 -16 -385 -53 -500 -126 l-41 -25 -9 22 c-4 13 -14 47 -22 76 -12 48 -11
59 5 100 78 204 109 345 131 597 31 359 45 423 135 614 77 165 90 220 90 372
0 91 6 144 20 198 24 89 25 147 6 391 -16 202 -23 917 -11 1111 8 129 -3 217
-56 439 -53 222 -150 554 -177 604 -46 85 -117 148 -223 199 -119 57 -377 159
-406 161 -13 0 -23 2 -23 4 0 1 9 35 20 74 38 137 19 190 -44 126 -36 -37 -68
-128 -217 -628 -45 -151 -93 -311 -106 -355 -17 -57 -27 -121 -33 -220 -5 -77
-13 -156 -19 -175 -28 -94 -157 -311 -263 -443 -30 -37 -79 -108 -109 -158
-47 -79 -81 -117 -251 -282 -109 -104 -200 -199 -204 -210 -9 -28 17 -50 49
-42 14 4 72 46 129 93 152 128 139 119 133 86 -3 -16 -23 -141 -45 -279 -43
-267 -39 -210 -70 -1035 -6 -151 -15 -315 -21 -363 -6 -52 -9 -226 -7 -432 2
-273 0 -345 -10 -345 -48 0 -784 73 -852 85 -47 8 -121 17 -165 21 -44 3 -165
19 -270 36 -161 25 -236 30 -495 38 -201 6 -412 19 -619 39 -173 17 -315 32
-317 34 -2 1 12 54 31 117 57 189 88 376 120 732 20 220 31 273 119 582 41
144 89 317 107 385 24 93 34 119 40 103 47 -125 72 -171 99 -181 28 -9 30 -8
36 24 4 23 -2 58 -20 112 -14 43 -40 134 -57 203 l-32 125 1 435 c1 430 7 531
37 638 15 50 17 52 52 52 74 0 95 55 41 107 -52 48 -266 204 -426 310 -93 61
-179 128 -237 183 -78 76 -153 131 -293 216 l-32 20 151 125 c82 68 178 141
212 162 78 47 100 68 150 141 l40 60 40 -50 c89 -108 172 -178 278 -233 57
-30 183 -101 280 -157 189 -112 215 -120 283 -88 45 22 80 12 96 -26 12 -30
72 -90 90 -90 23 0 40 34 40 78 0 27 7 57 16 70 11 15 15 38 12 68 -2 24 -1
44 2 44 3 -1 32 -7 65 -15 87 -21 236 -19 328 4 80 21 209 81 283 132 25 17
47 29 50 27 2 -3 11 -45 19 -94 29 -166 102 -344 203 -494 33 -49 41 -55 72
-55 33 0 35 2 38 37 2 25 -8 67 -32 127 -20 48 -36 91 -36 93 0 3 24 8 53 11
74 7 142 41 301 147 163 109 314 249 421 391 86 114 125 192 132 265 4 32 11
54 18 54 7 0 114 -52 238 -116 200 -102 227 -119 242 -150 27 -57 62 -66 153
-39 57 17 62 30 41 90 -10 28 -7 40 46 145 62 124 83 160 94 160 4 0 50 -32
102 -71z m-5916 -516 c-4 -32 -9 -65 -11 -74 -6 -20 -336 -154 -430 -174 -41
-9 -125 -15 -205 -15 l-136 0 23 118 c13 64 23 129 24 144 l0 27 63 -29 c110
-50 174 -64 282 -64 86 1 114 5 195 33 52 18 118 45 145 61 28 16 51 30 53 30
2 0 0 -26 -3 -57z"/>
<path d="M3771 4295 c-148 -47 -189 -238 -74 -347 85 -81 211 -74 290 15 134
152 -23 393 -216 332z m126 -36 c38 -14 83 -57 99 -96 49 -113 -38 -243 -161
-243 -94 0 -175 80 -175 174 0 121 124 208 237 165z"/>
<path d="M3954 3293 c-8 -21 -29 -72 -46 -113 -32 -75 -315 -510 -465 -713
-140 -189 -346 -373 -573 -513 -128 -78 -220 -151 -220 -175 0 -28 34 -42 75
-30 42 11 309 170 419 249 143 103 248 213 409 426 243 324 370 532 456 749
36 89 38 117 13 140 -29 27 -50 20 -68 -20z"/>
<path d="M8061 4205 c-148 -47 -189 -238 -74 -347 85 -81 211 -74 290 15 134
152 -23 393 -216 332z m126 -36 c38 -14 83 -57 99 -96 49 -113 -38 -243 -161
-243 -94 0 -175 80 -175 174 0 121 124 208 237 165z"/>
<path d="M7980 3261 c-18 -5 -69 -68 -180 -223 -85 -119 -214 -288 -286 -375
-160 -195 -174 -213 -218 -291 -30 -54 -34 -66 -24 -87 9 -19 16 -24 32 -19
12 3 26 11 32 18 145 148 522 620 643 805 60 91 67 113 55 159 -7 23 -13 24
-54 13z"/>
<path d="M15581 4565 c-148 -47 -189 -238 -74 -347 85 -81 211 -74 290 15 134
152 -23 393 -216 332z m126 -36 c38 -14 83 -57 99 -96 49 -113 -38 -243 -161
-243 -94 0 -175 80 -175 174 0 121 124 208 237 165z"/>
<path d="M11661 3985 c-148 -47 -189 -238 -74 -347 85 -81 211 -74 290 15 134
152 -23 393 -216 332z m126 -36 c38 -14 83 -57 99 -96 49 -113 -38 -243 -161
-243 -94 0 -175 80 -175 174 0 121 124 208 237 165z"/>
<path d="M15563 2888 c-5 -7 -20 -40 -33 -73 -41 -106 -70 -157 -167 -294
-220 -309 -285 -378 -645 -692 -16 -13 -29 -35 -30 -49 -3 -20 2 -26 24 -28
41 -5 80 20 238 152 290 240 447 426 620 735 65 115 82 168 70 212 -14 47 -55
66 -77 37z"/>
<path d="M11725 2097 c-52 -124 -151 -677 -121 -677 13 0 28 58 82 310 67 313
85 476 39 367z"/>
<path d="M15300 1874 c-96 -97 -201 -194 -233 -215 -33 -21 -119 -62 -193 -90
-125 -49 -155 -69 -99 -69 36 0 181 48 250 82 99 50 149 93 311 266 134 144
176 202 146 202 -4 0 -86 -79 -182 -176z"/>
</g>
</svg>
